<svg width="2083" height="642" viewBox="0 0 2083 642" fill="none" xmlns="http://www.w3.org/2000/svg">
<path d="M1950.53 109.525C1953.54 110.012 1956.56 110.354 1959.6 110.651C1992.41 114.024 2031.87 126.499 2057.89 147.305C2058.2 147.541 2058.51 147.776 2058.84 148.019C2064.16 152.074 2068.27 156.926 2071.92 162.489C2072.24 162.961 2072.56 163.433 2072.88 163.905C2075.95 168.468 2077.85 173.144 2079.29 178.417C2079.49 179.128 2079.73 179.83 2079.97 180.53C2081.13 184.029 2081.18 187.24 2081.01 190.881C2081.01 191.743 2081.01 191.743 2081.22 192.674C2081.46 194.373 2081.47 196.035 2081.48 197.75C2081.48 198.129 2081.49 198.508 2081.49 198.898C2081.5 200.175 2081.51 201.451 2081.52 202.728C2081.52 203.653 2081.53 204.578 2081.54 205.503C2081.55 207.788 2081.57 210.074 2081.58 212.36C2081.6 214.268 2081.61 216.176 2081.62 218.084C2081.62 218.36 2081.63 218.636 2081.63 218.92C2081.63 219.337 2081.63 219.337 2081.63 219.762C2081.69 227.749 2081.74 235.735 2081.79 243.722C2081.79 244.043 2081.79 244.364 2081.79 244.696C2081.92 264.616 2082.03 284.536 2082.13 304.456C2082.2 316.081 2082.26 327.707 2082.32 339.333C2082.34 342.928 2082.36 346.523 2082.38 350.118C2082.46 365.136 2082.55 380.155 2082.64 395.173C2082.66 397.312 2082.67 399.451 2082.68 401.59C2082.69 402.993 2082.7 404.396 2082.71 405.799C2082.71 406.143 2082.71 406.487 2082.72 406.842C2082.74 410.496 2082.76 414.15 2082.79 417.804C2082.84 425.208 2082.88 432.611 2082.91 440.015C2082.92 441.487 2082.93 442.959 2082.94 444.43C2082.95 447.748 2082.97 451.065 2082.98 454.383C2082.98 455.788 2082.99 457.194 2082.99 458.599C2083.05 468.074 2082.78 477.571 2081.48 486.969C2081.42 487.45 2081.35 487.932 2081.28 488.428C2077.97 512.214 2069.36 534.403 2054.09 553.089C2053.93 553.293 2053.76 553.497 2053.59 553.707C2047.85 560.712 2041.51 567.253 2034.37 572.828C2034.15 573.001 2033.93 573.173 2033.71 573.351C2026.78 578.867 2019.37 583.759 2011.6 588.012C2011.11 588.281 2011.11 588.281 2010.62 588.556C1981.75 604.397 1947.44 611.21 1903.26 613.508C1902.6 613.51 1901.93 613.511 1901.27 613.513C1899.15 613.517 1897.03 613.517 1894.92 613.515C1894.55 613.515 1894.19 613.515 1893.82 613.515C1857.62 613.488 1857.62 613.488 1843.72 610.669C1841.88 610.305 1840.03 610.014 1838.17 609.743C1837.88 609.699 1837.59 609.655 1837.28 609.609C1835.91 609.406 1834.53 609.236 1833.14 609.113C1825.58 608.442 1818.44 606.015 1811.21 603.788C1810.88 603.686 1810.55 603.583 1810.2 603.477C1803.72 601.476 1797.22 599.434 1791.01 596.671C1790.42 596.408 1790.42 596.408 1789.81 596.14C1774.94 589.396 1761.77 578.968 1755.66 563.369C1755.18 561.977 1754.76 560.587 1754.38 559.163C1754.27 558.78 1754.27 558.78 1754.17 558.389C1752.48 552.013 1751.77 545.253 1752.1 538.665C1752.11 538.386 1752.13 538.107 1752.14 537.82C1752.6 529.489 1754.53 521.504 1758.17 513.991C1758.3 513.714 1758.43 513.436 1758.57 513.15C1761.8 506.465 1766.83 498.021 1773.72 494.632C1775.77 495.124 1777.6 496.159 1779.46 497.119C1780.15 497.472 1780.85 497.824 1781.54 498.177C1781.9 498.361 1782.26 498.546 1782.63 498.736C1789.79 502.378 1796.97 505.771 1804.46 508.677C1805.14 508.947 1805.14 508.947 1805.85 509.223C1823.32 516.016 1841.65 520.4 1860.27 522.461C1860.69 522.507 1860.69 522.507 1861.12 522.555C1867.89 523.293 1874.61 523.56 1881.42 523.552C1882.02 523.552 1882.02 523.552 1882.62 523.551C1888.6 523.542 1894.5 523.41 1900.44 522.722C1900.87 522.675 1901.3 522.628 1901.74 522.58C1922.24 520.289 1943.83 515.296 1959.25 500.706C1959.56 500.413 1959.88 500.12 1960.21 499.819C1963.82 496.366 1966.81 492.31 1968.34 487.504C1968.71 486.708 1969.12 486.129 1969.65 485.433C1970.7 483.99 1971.26 482.544 1971.79 480.848C1971.88 480.552 1971.98 480.255 1972.08 479.949C1974.42 472.443 1975.38 464.905 1975.18 457.052C1974.36 457.541 1973.55 458.029 1972.73 458.518C1972.03 458.936 1971.34 459.355 1970.64 459.772C1968.43 461.088 1968.43 461.088 1966.27 462.466C1943.17 477.538 1908.91 476.608 1882.41 475.749C1881.1 475.707 1879.8 475.669 1878.5 475.632C1877.22 475.595 1875.95 475.554 1874.67 475.513C1874.22 475.5 1873.76 475.488 1873.29 475.475C1868.56 475.312 1864.01 474.585 1859.42 473.47C1856.36 472.743 1853.31 472.051 1850.23 471.418C1820.41 465.243 1789.05 452.048 1770.12 427.047C1769.51 426.255 1768.9 425.472 1768.28 424.689C1765.18 420.749 1762.2 416.737 1759.31 412.64C1759.13 412.385 1758.95 412.13 1758.76 411.867C1754.39 405.65 1750.35 399.24 1746.79 392.522C1746.59 392.152 1746.59 392.152 1746.39 391.774C1745.47 390.019 1744.6 388.242 1743.75 386.448C1743.61 386.151 1743.47 385.854 1743.33 385.548C1734.23 366.074 1729.66 344.398 1727.52 323.098C1727.47 322.56 1727.41 322.022 1727.35 321.484C1725.34 302.288 1725.83 282.637 1727.12 263.406C1727.14 263.087 1727.16 262.767 1727.18 262.438C1727.58 256.916 1728.29 251.518 1729.45 246.106C1729.57 245.529 1729.69 244.952 1729.82 244.375C1730.07 243.181 1730.32 241.987 1730.58 240.793C1730.91 239.274 1731.23 237.753 1731.55 236.232C1731.79 235.046 1732.05 233.861 1732.3 232.676C1732.42 232.116 1732.54 231.555 1732.66 230.994C1733.26 228.096 1733.96 225.483 1735.39 222.87C1735.92 221.822 1736.06 220.863 1736.15 219.699C1736.5 216.893 1737.52 214.59 1738.73 212.05C1739.14 211.143 1739.56 210.237 1739.98 209.33C1740.17 208.905 1740.37 208.48 1740.57 208.043C1741.17 206.75 1741.71 205.445 1742.24 204.126C1743.84 200.354 1745.91 196.799 1747.93 193.236C1748.13 192.883 1748.32 192.53 1748.53 192.167C1752.5 185.187 1757 178.664 1761.96 172.359C1762.29 171.932 1762.61 171.505 1762.94 171.077C1765.96 167.11 1769.31 163.464 1772.85 159.952C1773.76 159.049 1774.6 158.126 1775.41 157.127C1776.51 155.844 1777.61 155.091 1779.06 154.258C1779.86 153.716 1780.32 153.167 1780.91 152.406C1782.86 150.047 1785.51 148.489 1788.02 146.777C1789.45 145.784 1790.86 144.752 1792.27 143.723C1798.78 139.002 1805.32 134.451 1812.55 130.914C1814.9 129.762 1817.15 128.468 1819.33 127.006C1820.78 126.214 1822.3 125.762 1823.88 125.265C1827 124.258 1830.05 123.127 1833.1 121.92C1864.42 109.674 1899 106.682 1950.53 109.525ZM1906.51 198.55C1906.14 198.613 1905.76 198.677 1905.38 198.742C1888 201.772 1870.78 210.104 1859.47 223.983C1859.13 224.379 1858.79 224.774 1858.45 225.169C1838.32 249.125 1838.08 284.155 1840.61 313.798C1842.6 334.383 1848.94 354.556 1864.78 368.608C1866.95 370.396 1869.25 371.997 1871.61 373.542C1872 373.8 1872 373.8 1872.4 374.062C1891.65 386.499 1916.73 388.324 1938.74 383.673C1949.35 381.284 1961.54 377.704 1967.77 368.069C1970.76 362.992 1972.57 357.761 1972.57 351.822C1972.57 351.559 1972.57 351.297 1972.57 351.026C1972.57 350.153 1972.57 349.28 1972.57 348.407C1972.57 347.778 1972.57 347.15 1972.57 346.521C1972.57 344.819 1972.57 343.118 1972.56 341.416C1972.56 339.636 1972.56 337.855 1972.56 336.075C1972.56 332.706 1972.56 329.337 1972.55 325.969C1972.55 322.132 1972.55 318.296 1972.54 314.46C1972.54 306.57 1972.53 298.681 1972.52 290.791C1972.27 290.791 1972.02 290.791 1971.77 290.791C1971.77 290.454 1971.77 290.118 1971.77 289.771C1971.8 281.555 1971.83 273.338 1971.84 265.122C1971.85 261.149 1971.86 257.175 1971.88 253.202C1971.9 249.737 1971.91 246.271 1971.91 242.806C1971.91 240.973 1971.92 239.14 1971.93 237.307C1971.94 235.577 1971.94 233.848 1971.94 232.118C1971.94 231.487 1971.94 230.857 1971.95 230.227C1971.99 224.955 1971.37 219.836 1968.83 215.11C1968.69 214.859 1968.56 214.609 1968.43 214.351C1964.84 207.691 1958.8 203.34 1951.69 201.042C1942.58 198.323 1932.81 197.324 1923.35 197.317C1923.04 197.316 1922.73 197.316 1922.41 197.316C1917.04 197.323 1911.81 197.64 1906.51 198.55Z" fill="#1B4F88"/>
<path d="M571.605 12.7639C572.189 13.3184 572.767 13.8794 573.336 14.4483C573.691 14.7962 573.691 14.7962 574.052 15.1511C582.417 23.9909 583.937 37.8773 584.066 49.4775C584.073 50 584.08 50.5224 584.087 51.0448C584.106 52.5137 584.123 53.9826 584.139 55.4516C584.149 56.3986 584.16 57.3457 584.171 58.2927C584.483 84.6723 584.572 111.055 584.718 137.436C585.149 137.274 585.581 137.111 586.025 136.944C587.652 136.331 589.278 135.719 590.905 135.108C591.604 134.845 592.303 134.581 593.002 134.318C609.766 128.002 626.45 123.973 644.282 122.252C644.687 122.212 645.091 122.172 645.508 122.13C676.066 119.504 708.054 124.9 735.715 138.195C736.073 138.366 736.432 138.538 736.801 138.714C748.672 144.42 759.57 151.526 769.481 160.212C769.751 160.448 770.021 160.684 770.299 160.927C772.833 163.174 775.24 165.536 777.629 167.936C778.28 168.588 778.932 169.239 779.584 169.889C784.675 174.978 788.727 180.465 792.639 186.506C793.121 187.251 793.604 187.996 794.088 188.74C794.249 188.99 794.411 189.239 794.578 189.496C795.648 191.138 796.749 192.755 797.87 194.363C804.642 204.15 809.476 215.076 813.49 226.261C813.601 226.561 813.713 226.862 813.827 227.171C819.327 242.086 822.042 258.338 823.733 274.089C823.79 274.58 823.847 275.071 823.905 275.577C826.088 294.696 825.488 314.599 823.354 333.685C823.319 334.003 823.284 334.321 823.248 334.648C819.564 367.981 807.4 400.041 785.794 425.926C785.491 426.301 785.187 426.676 784.874 427.062C782.369 430.111 779.636 432.928 776.855 435.724C776.672 435.909 776.489 436.095 776.3 436.285C774.06 438.546 771.752 440.667 769.258 442.648C768.392 443.348 767.57 444.077 766.754 444.834C757.504 453.123 746.376 459.483 735.336 465.024C735.048 465.169 734.76 465.313 734.463 465.463C719.012 473.162 699.416 480.432 682.186 481.876C679.51 482.108 676.892 482.636 674.255 483.131C669.825 483.962 665.48 484.653 660.961 484.723C659.457 484.733 659.457 484.733 657.979 484.981C656.477 485.19 655.105 485.028 653.606 484.85C651.968 484.703 650.355 484.829 648.716 484.929C632.709 485.718 616.744 484.815 600.839 482.973C599.873 482.862 598.907 482.754 597.94 482.647C584.957 481.192 584.957 481.192 578.952 479.342C577.186 478.799 575.409 478.348 573.614 477.918C563.328 475.45 553.385 472.488 543.744 468.061C543.348 467.881 542.953 467.702 542.545 467.517C537.447 465.202 532.395 462.799 527.383 460.303C526.949 460.088 526.516 459.872 526.069 459.651C523.834 458.528 521.665 457.347 519.533 456.039C518.44 455.373 517.315 454.769 516.191 454.158C513.018 452.379 510.185 450.176 507.323 447.942C506.859 447.584 506.395 447.226 505.931 446.869C504.614 445.848 503.309 444.812 502.011 443.767C501.797 443.595 501.584 443.423 501.363 443.246C490.949 434.829 482.009 420.857 480.386 407.326C480.329 406.17 480.32 405.015 480.314 403.858C480.311 403.514 480.307 403.171 480.304 402.817C480.294 401.664 480.286 400.51 480.278 399.356C480.272 398.519 480.265 397.682 480.257 396.845C480.238 394.533 480.222 392.22 480.205 389.908C480.193 388.165 480.179 386.422 480.166 384.679C479.967 359.064 479.83 333.449 479.691 307.833C479.662 302.451 479.633 297.068 479.603 291.685C479.601 291.321 479.599 290.956 479.597 290.581C479.586 288.727 479.576 286.874 479.566 285.02C479.545 281.257 479.524 277.495 479.503 273.732C479.5 273.168 479.5 273.168 479.497 272.593C479.448 263.739 479.399 254.886 479.35 246.032C479.348 245.647 479.346 245.263 479.344 244.866C479.327 241.75 479.31 238.634 479.293 235.518C479.244 226.568 479.194 217.617 479.145 208.667C479.143 208.284 479.141 207.9 479.139 207.505C479.09 198.676 479.041 189.847 478.993 181.018C478.991 180.643 478.988 180.267 478.986 179.88C478.965 176.12 478.945 172.359 478.924 168.599C478.882 161.021 478.84 153.444 478.799 145.867C478.756 138.126 478.714 130.384 478.671 122.643C478.665 121.67 478.66 120.696 478.655 119.723C478.574 105.297 478.488 90.8706 478.383 76.4446C478.381 76.1395 478.379 75.8344 478.377 75.52C478.335 69.7065 478.292 63.893 478.247 58.0795C478.116 41.258 478.057 24.4376 478.11 7.61565C479.006 7.31094 479.902 7.00768 480.799 6.70523C481.175 6.57719 481.175 6.57719 481.558 6.44657C483.946 5.64352 486.358 5.07368 488.827 4.57892C489.291 4.48485 489.755 4.39078 490.234 4.29385C514.586 -0.493867 551.325 -5.01392 571.605 12.7639ZM591.547 219.808C591.309 220.032 591.071 220.257 590.825 220.488C584.707 226.776 584.277 235.554 584.296 243.798C584.296 244.453 584.296 245.108 584.295 245.763C584.295 247.531 584.298 249.299 584.3 251.067C584.303 252.919 584.303 254.771 584.303 256.622C584.304 260.124 584.308 263.626 584.311 267.128C584.316 271.117 584.318 275.106 584.32 279.094C584.324 287.295 584.33 295.496 584.339 303.697C584.589 303.697 584.839 303.697 585.097 303.697C585.096 304.046 585.095 304.394 585.094 304.753C585.069 313.255 585.05 321.756 585.038 330.257C585.033 334.368 585.025 338.48 585.012 342.591C585 346.177 584.993 349.762 584.99 353.348C584.989 355.244 584.985 357.141 584.977 359.037C584.969 360.827 584.967 362.616 584.969 364.406C584.968 365.059 584.966 365.711 584.962 366.363C584.905 375.175 586.686 383.096 592.756 389.77C596.301 393.055 600.666 395.177 605.205 396.697C605.484 396.792 605.763 396.886 606.05 396.983C615.404 400.07 625.332 401.339 635.153 401.347C635.572 401.348 635.572 401.348 635.999 401.348C658.421 401.316 677.108 394.445 693.086 378.621C706.704 364.919 712.727 345.181 715.228 326.473C715.285 326.05 715.343 325.626 715.402 325.19C717.365 309.867 717.012 294.029 714.963 278.738C714.848 277.882 714.737 277.026 714.627 276.169C713.765 269.536 712.613 263.041 710.675 256.628C710.587 256.329 710.499 256.03 710.407 255.721C707.032 244.431 701.338 234.749 693.223 226.261C692.887 225.904 692.551 225.548 692.205 225.181C678.625 211.14 659.581 205.993 640.596 205.334C624.373 205.079 603.623 207.971 591.547 219.808Z" fill="#1B4F88"/>
<path d="M1525.21 116.861C1525.77 116.858 1526.34 116.856 1526.91 116.853C1528.71 116.845 1530.51 116.844 1532.31 116.843C1532.62 116.843 1532.93 116.843 1533.24 116.843C1542.25 116.84 1551.18 116.917 1560.13 118.077C1560.68 118.145 1561.23 118.213 1561.78 118.28C1577.07 120.186 1591.65 123.699 1606.14 128.94C1607.89 129.57 1609.65 130.162 1611.42 130.736C1614.08 131.603 1616.62 132.5 1619.08 133.877C1619.37 134.037 1619.66 134.198 1619.97 134.363C1636.31 143.356 1653.44 153.909 1665.71 168.207C1667.24 169.937 1668.84 171.567 1670.67 172.975C1672.36 174.394 1673.51 176.22 1674.76 178.015C1675.73 179.424 1676.75 180.799 1677.77 182.172C1681.94 187.763 1685.75 193.55 1689.32 199.537C1689.73 200.203 1690.15 200.862 1690.57 201.518C1692.73 204.89 1694.36 208.384 1695.95 212.049C1696.22 212.664 1696.49 213.278 1696.76 213.893C1697.51 215.608 1698.25 217.328 1698.99 219.048C1699.15 219.44 1699.32 219.832 1699.5 220.235C1705.25 233.716 1708.78 247.893 1711.13 262.322C1711.2 262.762 1711.27 263.202 1711.34 263.656C1712.27 269.405 1712.9 275.176 1713.47 280.969C1713.51 281.295 1713.54 281.62 1713.57 281.955C1717.14 318.353 1711.95 357.197 1694.08 394.773C1693.63 395.652 1693.18 396.536 1692.73 397.419C1687.84 407.025 1681.92 416.073 1675.08 424.407C1674.83 424.716 1674.83 424.716 1674.57 425.031C1668.87 431.96 1662.66 439.025 1655.56 444.532C1654.64 445.25 1653.76 446.003 1652.88 446.771C1650.07 449.22 1647.07 451.374 1643.99 453.481C1643.29 453.965 1642.59 454.455 1641.89 454.947C1614.9 473.639 1581.59 482.584 1549.13 484.763C1548.83 484.784 1548.53 484.805 1548.23 484.827C1539.16 485.461 1529.93 485.372 1520.85 484.864C1519 484.77 1517.28 484.788 1515.44 485.013C1513.17 485.229 1511.23 484.843 1509.02 484.347C1507.17 483.939 1505.31 483.671 1503.43 483.404C1502.72 483.301 1502 483.197 1501.29 483.094C1500.92 483.041 1500.55 482.988 1500.18 482.934C1482.15 480.313 1464.87 475.502 1448.21 468.06C1447.84 467.897 1447.47 467.734 1447.09 467.566C1438.02 463.501 1429.57 458.268 1421.46 452.521C1421.19 452.327 1420.91 452.133 1420.63 451.932C1418.28 450.264 1415.98 448.549 1413.68 446.803C1413.29 446.508 1412.89 446.213 1412.48 445.909C1409.41 443.61 1406.58 441.119 1403.82 438.452C1403.58 438.224 1403.35 437.997 1403.1 437.762C1400.1 434.848 1397.29 431.886 1394.71 428.583C1394.37 428.155 1394.02 427.727 1393.67 427.3C1384.85 416.479 1377.45 404.609 1371.19 392.142C1370.98 391.719 1370.98 391.719 1370.76 391.288C1360.5 370.872 1356.35 348.19 1353.74 325.714C1353.58 324.299 1353.41 322.884 1353.24 321.47C1353.15 320.704 1353.06 319.937 1352.98 319.17C1352.94 318.841 1352.9 318.512 1352.86 318.174C1352.83 317.895 1352.8 317.615 1352.76 317.328C1352.62 316.484 1352.62 316.484 1351.84 315.465C1351.97 314.465 1352.15 313.708 1352.6 312.807C1352.64 312.019 1352.66 311.229 1352.66 310.439C1352.66 309.942 1352.66 309.444 1352.66 308.931C1352.67 308.385 1352.67 307.839 1352.67 307.293C1352.67 306.735 1352.67 306.177 1352.67 305.619C1352.67 304.449 1352.67 303.279 1352.67 302.109C1352.67 300.609 1352.68 299.108 1352.68 297.608C1352.69 296.456 1352.69 295.303 1352.69 294.151C1352.69 293.598 1352.69 293.044 1352.69 292.491C1352.7 291.718 1352.7 290.945 1352.69 290.171C1352.7 289.731 1352.7 289.291 1352.7 288.837C1352.68 287.678 1352.68 287.678 1351.84 286.616C1352.05 284.507 1352.05 284.507 1352.6 283.958C1352.7 282.941 1352.78 281.93 1352.85 280.91C1352.89 280.266 1352.94 279.622 1352.98 278.978C1353.05 277.967 1353.12 276.956 1353.19 275.945C1353.49 271.458 1354.03 267.116 1354.88 262.701C1355.02 261.82 1355.16 260.937 1355.29 260.053C1359.47 231.847 1370.64 205.298 1387.89 182.607C1388.21 182.177 1388.53 181.745 1388.85 181.313C1393.05 175.649 1397.67 170.468 1402.64 165.478C1403.33 164.785 1404.01 164.087 1404.7 163.39C1405.14 162.943 1405.59 162.497 1406.03 162.052C1406.23 161.845 1406.43 161.639 1406.64 161.426C1407.57 160.498 1408.28 159.873 1409.49 159.314C1410.64 158.698 1411.08 158.25 1411.89 157.263C1413.37 155.491 1415.06 154.335 1416.99 153.099C1417.34 152.868 1417.69 152.638 1418.05 152.401C1419.17 151.671 1420.29 150.947 1421.41 150.223C1422.15 149.743 1422.89 149.262 1423.63 148.78C1425.07 147.837 1426.52 146.898 1427.97 145.963C1429.23 145.144 1430.5 144.32 1431.76 143.49C1437.13 139.953 1442.65 136.905 1448.48 134.188C1449.35 133.782 1450.22 133.373 1451.08 132.964C1452.5 132.295 1453.93 131.635 1455.36 130.98C1455.89 130.734 1456.43 130.486 1456.96 130.237C1460.73 128.488 1464.5 127.168 1468.51 126.072C1469.09 125.91 1469.67 125.749 1470.25 125.587C1472 125.099 1473.76 124.623 1475.52 124.15C1475.79 124.078 1476.06 124.006 1476.33 123.932C1492.28 119.634 1508.66 116.909 1525.21 116.861ZM1492.92 225.261C1491.97 226.143 1491 226.999 1490.01 227.85C1488.72 228.993 1487.58 230.195 1486.47 231.512C1485.68 232.438 1484.85 233.319 1484.01 234.208C1466.67 253.275 1456.16 279.64 1455.45 305.29C1455.43 305.936 1455.41 306.582 1455.38 307.228C1454.35 335.154 1464.86 367.738 1483.98 388.425C1493.6 398.342 1506.14 403.255 1519.84 403.909C1539.14 404.169 1558.19 391.071 1571.75 378.297C1573.03 377.036 1574.24 375.746 1575.4 374.372C1576.59 372.975 1577.91 371.744 1579.26 370.505C1579.48 370.308 1579.7 370.111 1579.92 369.907C1580.13 369.714 1580.34 369.52 1580.56 369.321C1587.73 362.773 1593.13 354.734 1597.69 346.211C1597.87 345.873 1598.05 345.534 1598.24 345.185C1613.06 317.133 1614.78 285.095 1605.7 254.949C1601.73 242.237 1595.85 230.075 1587.82 219.428C1587.66 219.212 1587.5 218.996 1587.34 218.774C1579.33 207.955 1568.58 200.461 1555.07 198.445C1531.09 195.527 1509.83 209.533 1492.92 225.261Z" fill="#1B4F88"/>
<path d="M911.752 116.559C912.071 116.565 912.39 116.572 912.718 116.579C928.114 116.949 946.567 118.676 958.038 130.224C961.85 134.623 966.384 142.451 966.384 148.444C966.635 148.57 966.885 148.695 967.143 148.824C967.018 149.074 966.893 149.325 966.764 149.583C966.851 150.345 966.966 151.103 967.093 151.859C967.591 155.15 967.784 158.428 967.94 161.75C967.956 162.076 967.972 162.401 967.988 162.737C968.361 170.505 968.408 178.27 968.422 186.045C968.427 188.076 968.436 190.107 968.444 192.137C968.458 195.613 968.469 199.088 968.479 202.564C968.494 208.037 968.515 213.511 968.536 218.984C968.543 220.841 968.55 222.698 968.558 224.555C968.559 225.016 968.561 225.476 968.563 225.951C968.576 229.219 968.588 232.487 968.599 235.755C968.658 252.147 968.738 268.538 968.833 284.93C968.846 287.249 968.859 289.568 968.871 291.888C968.915 300.253 968.967 308.618 969.04 316.983C969.043 317.285 969.045 317.587 969.048 317.898C969.083 321.913 969.125 325.928 969.173 329.944C969.187 331.093 969.2 332.243 969.211 333.392C969.389 351.496 970.588 369.648 983.077 383.791C983.309 384.055 983.541 384.319 983.78 384.591C994.691 396.227 1012.22 399.676 1027.47 400.493C1029.54 400.552 1031.61 400.568 1033.68 400.565C1033.96 400.564 1034.24 400.564 1034.53 400.564C1047.8 400.535 1060.7 398.52 1073.28 394.23C1073.87 394.028 1073.87 394.028 1074.48 393.821C1076.5 393.111 1078.47 392.325 1080.42 391.442C1080.97 391.195 1080.97 391.195 1081.53 390.942C1082.79 390.01 1083.28 389.081 1083.62 387.587C1083.77 386.029 1083.76 384.483 1083.74 382.918C1083.74 382.432 1083.74 381.946 1083.74 381.445C1083.74 380.075 1083.73 378.705 1083.72 377.334C1083.71 376.157 1083.7 374.98 1083.7 373.802C1083.69 370.32 1083.67 366.838 1083.64 363.356C1083.62 360.296 1083.6 357.237 1083.58 354.177C1083.55 348.035 1083.51 341.894 1083.47 335.752C1083.46 334.338 1083.45 332.923 1083.44 331.509C1083.42 328.499 1083.4 325.49 1083.37 322.48C1083.36 321.212 1083.35 319.943 1083.35 318.675C1083.34 317.281 1083.33 315.887 1083.31 314.493C1083.31 314.084 1083.31 313.675 1083.31 313.253C1083.3 312.687 1083.3 312.687 1083.3 312.109C1083.29 311.783 1083.29 311.458 1083.29 311.123C1083.26 310.137 1083.26 310.137 1083.05 309.127C1082.79 307.436 1082.81 305.779 1082.81 304.071C1082.81 303.689 1082.81 303.306 1082.81 302.912C1082.81 301.629 1082.82 300.345 1082.82 299.062C1082.82 298.138 1082.82 297.214 1082.82 296.291C1082.82 294.291 1082.82 292.292 1082.83 290.293C1082.83 287.361 1082.84 284.43 1082.84 281.498C1082.84 276.95 1082.84 272.403 1082.85 267.855C1082.86 256.06 1082.87 244.264 1082.87 232.469C1082.87 231.593 1082.87 230.717 1082.87 229.841C1082.87 211.411 1082.83 192.983 1082.67 174.553C1082.67 173.758 1082.66 172.962 1082.65 172.166C1082.62 167.784 1082.58 163.402 1082.54 159.02C1082.47 151.081 1082.43 143.143 1082.43 135.205C1082.43 134.326 1082.43 133.446 1082.43 132.567C1082.42 131.049 1082.43 129.53 1082.43 128.012C1082.43 127.581 1082.43 127.151 1082.42 126.707C1082.43 126.324 1082.43 125.94 1082.43 125.545C1082.43 125.053 1082.43 125.053 1082.43 124.551C1082.48 123.771 1082.48 123.771 1082.86 123.012C1084.75 122.403 1086.71 122.004 1088.64 121.565C1088.94 121.497 1089.23 121.43 1089.53 121.36C1094.75 120.171 1099.98 119.345 1105.29 118.698C1105.7 118.648 1105.7 118.648 1106.12 118.596C1106.66 118.53 1107.21 118.464 1107.75 118.399C1109.38 118.198 1110.98 117.936 1112.59 117.627C1116.17 116.938 1119.66 116.733 1123.31 116.677C1123.87 116.665 1124.43 116.652 1125 116.638C1126.63 116.601 1128.27 116.577 1129.9 116.559C1130.4 116.553 1130.9 116.548 1131.41 116.542C1143.44 116.472 1156.81 117.414 1167.84 122.632C1168.48 122.918 1168.48 122.918 1169.12 123.209C1176.46 126.653 1181.96 132.065 1185.12 139.588C1185.61 141.008 1186.04 142.436 1186.43 143.889C1186.5 144.137 1186.57 144.384 1186.64 144.639C1187.6 148.258 1188.15 151.915 1188.59 155.633C1188.63 156.009 1188.68 156.385 1188.73 156.773C1189.59 164.829 1189.52 172.999 1189.54 181.092C1189.54 182.035 1189.54 182.978 1189.55 183.921C1189.55 185.939 1189.56 187.958 1189.56 189.977C1189.57 192.943 1189.58 195.909 1189.59 198.875C1189.61 203.797 1189.62 208.719 1189.63 213.641C1189.67 224.877 1189.7 236.112 1189.74 247.348C1189.75 249.167 1189.75 250.986 1189.76 252.804C1189.8 267.506 1189.86 282.207 1189.95 296.908C1189.96 297.262 1189.96 297.615 1189.96 297.98C1189.98 301.39 1190 304.8 1190.03 308.209C1190.17 329.96 1190.28 351.711 1190.31 373.462C1190.31 374.216 1190.31 374.971 1190.31 375.725C1190.31 376.281 1190.31 376.281 1190.31 376.849C1190.32 379.412 1190.32 381.975 1190.33 384.539C1190.34 387.623 1190.35 390.707 1190.35 393.792C1190.35 395.36 1190.35 396.929 1190.36 398.498C1190.43 415.91 1187.67 430.748 1175.22 443.612C1169.11 449.772 1161.67 454.299 1154.18 458.571C1153.71 458.841 1153.71 458.841 1153.23 459.116C1133.94 470.016 1108.52 478.712 1086.46 480.861C1085.08 481.015 1083.72 481.271 1082.36 481.536C1078.34 482.295 1074.27 482.676 1070.21 483.099C1068.8 483.247 1067.38 483.401 1065.97 483.556C1065.02 483.658 1064.08 483.76 1063.13 483.861C1062.7 483.908 1062.28 483.955 1061.84 484.003C1053.38 484.894 1044.9 484.854 1036.41 484.858C1036.07 484.858 1035.74 484.858 1035.39 484.859C1025.68 484.865 1015.99 484.727 1006.29 484.301C1005.47 484.265 1004.65 484.231 1003.84 484.197C998.363 483.965 992.99 483.684 987.63 482.485C987.201 482.393 986.771 482.3 986.329 482.205C985.108 481.936 983.891 481.654 982.674 481.37C979.374 480.612 976.087 479.977 972.739 479.472C966.752 478.546 961.095 476.583 955.384 474.616C953.712 474.051 952.033 473.558 950.328 473.102C949.909 472.99 949.49 472.877 949.058 472.761C948.24 472.544 947.421 472.332 946.6 472.127C944.241 471.502 942.366 470.665 940.314 469.348C939.091 468.602 937.889 468.186 936.531 467.729C931.325 465.865 927.031 463.123 922.6 459.845C920.115 458.012 917.534 456.327 914.956 454.628C913.22 453.482 911.491 452.324 909.76 451.169C909.102 450.73 908.444 450.291 907.786 449.852C907.485 449.65 907.184 449.448 906.874 449.24C906.216 448.804 905.548 448.384 904.877 447.968C903.376 446.89 902.117 445.626 900.821 444.313C900.552 444.042 900.284 443.772 900.007 443.493C898.242 441.697 896.61 439.858 895.055 437.877C894.302 436.937 893.508 436.06 892.688 435.179C890.474 432.743 888.512 430.116 886.546 427.479C886.173 426.98 885.8 426.482 885.424 425.985C881.53 420.83 878.441 415.199 876.002 409.218C875.843 408.829 875.684 408.439 875.52 408.038C875.384 407.692 875.247 407.347 875.105 406.991C874.667 406.018 874.192 405.162 873.647 404.249C872.486 402.19 871.931 400.044 871.347 397.765C870.649 395.137 869.943 392.564 868.952 390.031C868.18 387.981 867.875 386.01 867.669 383.847C867.473 381.981 867.032 380.323 866.439 378.548C865.092 374.443 864.826 370.148 864.446 365.866C864.35 364.842 864.35 364.842 864.144 363.97C861.363 348.876 863.033 331.892 862.977 316.584C862.962 312.591 862.943 308.599 862.924 304.607C862.89 297.418 862.859 290.229 862.83 283.041C862.788 272.859 862.743 262.677 862.698 252.495C862.696 252.082 862.694 251.668 862.692 251.243C862.675 247.504 862.658 243.766 862.641 240.027C862.623 235.914 862.604 231.8 862.586 227.687C862.514 211.157 862.438 194.628 862.325 178.099C862.323 177.774 862.321 177.449 862.318 177.114C862.273 170.515 862.225 163.915 862.175 157.315C862.157 154.981 862.14 152.646 862.123 150.311C862.119 149.828 862.115 149.344 862.112 148.845C862.049 140.234 862.032 131.623 862.052 123.012C863.143 122.757 864.234 122.503 865.325 122.249C865.632 122.178 865.939 122.106 866.255 122.033C881.233 118.544 896.32 116.193 911.752 116.559Z" fill="#1B4F88"/>
<path d="M1286.71 2.84705C1287.05 2.90439 1287.39 2.96174 1287.74 3.02082C1296.88 4.56934 1296.88 4.56934 1300.82 6.80904C1301.31 7.08191 1301.8 7.35424 1302.29 7.62605C1302.53 7.75615 1302.76 7.88625 1303 8.02029C1303.87 8.48638 1304.76 8.89128 1305.65 9.30011C1312.43 12.7468 1316.74 19.979 1319.11 27.0281C1319.74 29.0146 1320.25 31.022 1320.73 33.0483C1320.85 33.5093 1320.96 33.9702 1321.08 34.4451C1322.92 42.976 1322.75 52.0276 1322.77 60.7124C1322.78 62.0743 1322.79 63.4362 1322.79 64.798C1322.81 67.1759 1322.82 69.5537 1322.83 71.9315C1322.84 75.4738 1322.86 79.0161 1322.88 82.5584C1322.91 88.5525 1322.94 94.5466 1322.97 100.541C1323 106.551 1323.02 112.56 1323.06 118.57C1323.06 118.948 1323.06 119.327 1323.06 119.717C1323.07 121.642 1323.08 123.567 1323.09 125.492C1323.16 139.17 1323.23 152.847 1323.29 166.525C1323.36 179.494 1323.42 192.462 1323.48 205.431C1323.49 205.823 1323.49 206.215 1323.49 206.619C1323.52 212.143 1323.55 217.668 1323.57 223.193C1323.58 224.376 1323.58 225.559 1323.59 226.743C1323.6 229.111 1323.61 231.48 1323.63 233.848C1323.63 234.239 1323.63 234.629 1323.63 235.032C1323.65 238.973 1323.67 242.914 1323.69 246.855C1323.73 255.107 1323.77 263.359 1323.82 271.612C1323.98 305.583 1324.16 339.553 1324.36 373.524C1324.37 374.077 1324.37 374.077 1324.37 374.641C1324.46 390.037 1324.56 405.432 1324.66 420.828C1324.67 423.063 1324.69 425.299 1324.7 427.534C1324.7 427.843 1324.7 428.152 1324.71 428.47C1324.71 429.699 1324.72 430.928 1324.73 432.156C1324.75 435.344 1324.77 438.532 1324.79 441.72C1324.83 447.186 1324.86 452.651 1324.89 458.116C1324.9 460.634 1324.91 463.151 1324.93 465.669C1324.94 467.149 1324.95 468.629 1324.96 470.11C1324.96 470.777 1324.97 471.445 1324.97 472.112C1324.98 473.005 1324.98 473.898 1324.99 474.791C1324.99 475.283 1324.99 475.775 1325 476.281C1324.91 477.527 1324.76 478.361 1324.15 479.448C1323.17 479.825 1322.36 480.052 1321.35 480.245C1321.07 480.305 1320.78 480.366 1320.49 480.429C1319.56 480.624 1318.63 480.808 1317.7 480.99C1317.06 481.122 1316.41 481.254 1315.77 481.387C1304.97 483.585 1294.19 484.835 1283.17 485.142C1282.88 485.151 1282.59 485.16 1282.29 485.169C1266.08 485.598 1244.2 485.679 1231.46 473.992C1230.73 473.292 1230.01 472.578 1229.3 471.857C1228.99 471.552 1228.68 471.247 1228.37 470.933C1218.62 460.778 1218.21 445.647 1218.09 432.445C1218.08 431.567 1218.08 430.688 1218.07 429.81C1218.01 425.135 1217.97 420.459 1217.93 415.784C1217.92 414.518 1217.91 413.252 1217.9 411.985C1217.67 386.802 1217.54 361.619 1217.45 336.435C1217.44 335.392 1217.44 334.35 1217.44 333.308C1217.4 323.617 1217.36 313.926 1217.33 304.235C1217.26 284.235 1217.19 264.236 1216.99 244.237C1216.98 243.073 1216.97 241.908 1216.96 240.744C1216.87 231.5 1216.71 222.263 1216.43 213.023C1216.39 211.393 1216.4 209.764 1216.4 208.133C1216.41 197.719 1216.42 187.304 1216.43 176.89C1216.43 176.465 1216.43 176.039 1216.43 175.601C1216.44 150.4 1216.38 125.2 1216.21 99.9988C1216.18 94.5224 1216.14 89.0461 1216.11 83.5696C1216.1 83.2349 1216.1 82.9001 1216.1 82.5552C1216 66.0371 1215.99 49.5192 1216 33.0009C1216 32.6681 1216 32.3354 1216 31.9926C1216 23.7404 1216.01 15.4883 1216.02 7.23608C1218.06 6.76764 1220.1 6.30165 1222.15 5.83772C1222.84 5.68028 1223.53 5.52222 1224.22 5.36348C1233.03 3.3423 1241.91 1.84397 1250.93 1.16261C1251.18 1.1412 1251.44 1.11979 1251.71 1.09774C1263.5 0.138027 1275.07 0.883997 1286.71 2.84705Z" fill="#1B4F88"/>
<path d="M335.839 181.469C337.542 181.901 338.897 182.371 340.34 183.374C340.673 183.603 341.006 183.832 341.349 184.068C341.873 184.437 341.873 184.437 342.407 184.814C342.774 185.068 343.14 185.323 343.517 185.585C344.629 186.359 345.736 187.139 346.841 187.922C347.161 188.147 347.48 188.373 347.81 188.605C359.137 196.623 370.597 205.717 379.089 216.771C379.438 217.193 379.789 217.613 380.14 218.033C388.666 228.275 394.78 240.585 397.68 253.591C397.742 253.849 397.804 254.107 397.868 254.373C400.074 263.779 399.563 275.019 397.3 284.338C397.219 284.673 397.138 285.009 397.054 285.354C396.464 287.702 395.773 290.008 395.024 292.31C394.918 292.637 394.813 292.964 394.704 293.302C390.351 306.581 383.26 318.445 374.72 329.408C373.174 331.396 373.174 331.396 371.868 333.541C369.731 337.217 366.24 340.144 363.251 343.129C362.744 343.637 362.236 344.146 361.728 344.654C360.668 345.716 359.607 346.776 358.545 347.837C357.191 349.189 355.839 350.543 354.488 351.898C353.441 352.947 352.393 353.995 351.345 355.043C350.846 355.541 350.348 356.04 349.849 356.539C347.394 359 344.942 361.424 342.289 363.673C341.547 364.346 340.816 365.03 340.083 365.713C338.32 367.343 336.505 368.887 334.634 370.393C333.691 371.161 332.765 371.945 331.843 372.739C328.964 375.212 325.965 377.511 322.938 379.8C322.26 380.315 321.586 380.835 320.914 381.358C316.042 385.15 311.018 388.73 305.919 392.209C304.725 393.024 303.534 393.843 302.344 394.664C298.639 397.219 294.915 399.747 291.185 402.266C290.476 402.745 289.768 403.225 289.06 403.705C284.925 406.507 280.772 409.261 276.516 411.878C275.651 412.411 274.792 412.954 273.933 413.497C267.602 417.476 261.116 421.193 254.555 424.778C254.328 424.902 254.101 425.026 253.867 425.154C253.64 425.278 253.413 425.402 253.18 425.53C248.092 428.311 243.114 431.232 238.174 434.268C235.951 435.634 233.71 436.967 231.46 438.286C228.046 440.292 224.672 442.356 221.305 444.438C218.437 446.211 215.56 447.966 212.675 449.711C208.612 452.171 204.569 454.66 200.567 457.219C199.561 457.861 198.552 458.498 197.543 459.134C188.042 465.148 178.77 471.514 169.562 477.966C168.093 478.994 166.621 480.016 165.149 481.038C161.204 483.78 157.266 486.53 153.353 489.318C153.086 489.508 152.819 489.698 152.544 489.893C148.457 492.806 144.45 495.813 140.467 498.865C138.804 500.14 137.13 501.398 135.45 502.651C132.693 504.711 129.978 506.822 127.265 508.941C125.912 509.998 124.553 511.048 123.191 512.093C120.38 514.253 117.584 516.433 114.787 518.612C113.901 519.302 113.015 519.991 112.128 520.68C109.339 522.849 106.552 525.021 103.777 527.208C101.677 528.86 99.5676 530.499 97.458 532.139C95.5134 533.651 93.5737 535.169 91.6401 536.695C90.3999 537.673 89.1538 538.642 87.9021 539.605C85.1574 541.719 82.4489 543.826 79.9038 546.181C76.9798 548.859 73.8934 551.341 70.7637 553.772C68.9022 555.226 67.1104 556.752 65.3251 558.299C63.7666 559.647 62.1789 560.949 60.5639 562.229C57.8218 564.403 55.1484 566.631 52.5611 568.988C51.7681 569.708 50.967 570.417 50.1588 571.12C49.0102 572.121 47.8751 573.136 46.7443 574.157C45.3721 575.396 43.9885 576.619 42.5947 577.834C41.6948 578.625 40.8047 579.427 39.9153 580.23C38.5431 581.469 37.1594 582.693 35.7657 583.907C34.8658 584.699 33.9757 585.5 33.0863 586.304C31.7141 587.542 30.3304 588.766 28.9367 589.981C28.0367 590.772 27.1467 591.574 26.2573 592.377C24.8851 593.616 23.5014 594.84 22.1077 596.054C21.2077 596.846 20.3177 597.647 19.4283 598.45C17.7973 599.921 16.1574 601.379 14.4962 602.816C14.2088 603.067 14.2088 603.067 13.9156 603.324C13.2656 603.893 12.6126 604.458 11.959 605.022C11.7515 605.205 11.544 605.387 11.3302 605.575C10.1674 606.573 9.12991 607.281 7.66719 607.75C3.53787 596.135 1.61347 583.683 1.28426 571.391C1.24156 569.805 1.14283 568.227 1.03603 566.644C0.829814 563.45 0.722334 560.258 0.641076 557.059C0.633422 556.77 0.62576 556.481 0.617874 556.183C0.445174 549.665 0.321603 543.145 0.226397 536.625C0.207672 535.355 0.1865 534.086 0.163413 532.817C0.13484 531.246 0.110164 529.674 0.0883173 528.103C0.07952 527.515 0.0693949 526.927 0.0578439 526.339C0.0421683 525.527 0.031523 524.714 0.0220678 523.902C0.0147873 523.443 0.00750107 522.984 0 522.512C0.135427 520.28 0.605228 518.555 2.15271 516.927C2.61111 516.442 2.61111 516.442 3.07876 515.948C3.46943 515.548 3.86082 515.149 4.25269 514.75C4.49585 514.501 4.73901 514.252 4.98954 513.995C6.76202 512.182 8.54818 510.382 10.341 508.589C11.2961 507.632 12.2482 506.673 13.2002 505.713C13.8143 505.097 14.4286 504.482 15.0431 503.867C15.3237 503.583 15.6044 503.3 15.8936 503.008C20.4906 498.428 20.4906 498.428 22.084 498.428C22.2092 498.052 22.3344 497.676 22.4634 497.289C23.031 496.717 23.031 496.717 23.7675 496.103C24.9541 495.099 26.1107 494.073 27.2532 493.019C29.2193 491.24 31.294 489.622 33.3842 487.994C35.8803 486.089 35.8803 486.089 37.9946 483.79C38.7264 482.925 39.2132 482.559 40.1672 482C41.7724 481.019 43.1938 479.896 44.6339 478.689C46.7757 476.921 48.9431 475.197 51.1547 473.517C53.0805 472.054 54.9969 470.582 56.893 469.081C61.917 465.113 67.0037 461.228 72.2358 457.539C73.5778 456.588 74.909 455.621 76.2418 454.656C76.5306 454.448 76.8193 454.239 77.1169 454.024C78.5506 452.988 79.9825 451.95 81.411 450.906C85.4974 447.927 89.6528 445.061 93.8401 442.226C94.8922 441.513 95.9428 440.797 96.9927 440.081C99.4629 438.395 101.937 436.715 104.411 435.036C104.696 434.843 104.981 434.65 105.275 434.45C114.913 427.915 124.591 421.446 134.334 415.068C135.616 414.228 136.897 413.386 138.179 412.545C143.387 409.127 148.602 405.718 153.821 402.316C155.602 401.155 157.382 399.994 159.162 398.833C159.519 398.6 159.875 398.368 160.242 398.128C163.452 396.033 166.66 393.934 169.867 391.834C171.998 390.44 174.132 389.049 176.27 387.665C184.355 382.429 192.348 377.061 200.234 371.53C201.547 370.611 202.869 369.704 204.191 368.797C207.746 366.358 211.281 363.891 214.818 361.426C216.65 360.15 218.483 358.875 220.315 357.599C221.041 357.094 221.766 356.589 222.492 356.084C223.961 355.062 225.43 354.039 226.899 353.018C233.238 348.609 239.567 344.189 245.87 339.73C246.925 338.985 247.98 338.24 249.036 337.497C252.119 335.327 255.188 333.137 258.241 330.923C259.55 329.973 260.862 329.027 262.184 328.095C264.953 326.144 267.619 324.109 270.205 321.918C270.408 321.747 270.611 321.575 270.821 321.399C273.283 319.324 275.701 317.213 278.053 315.014C280.49 312.738 283.047 310.637 285.662 308.568C289.537 305.465 292.921 301.981 296.11 298.183C296.474 297.751 296.837 297.318 297.201 296.886C297.562 296.456 297.923 296.026 298.282 295.595C299.362 294.307 300.492 293.107 301.694 291.93C303.854 289.761 305.542 287.541 307.002 284.857C307.828 283.346 308.727 281.944 309.732 280.542C313.269 275.519 316.346 270.176 318.841 264.562C318.966 264.283 319.091 264.004 319.22 263.717C319.326 263.474 319.431 263.231 319.54 262.981C319.905 262.322 319.905 262.322 320.493 261.755C321.278 260.938 321.361 260.012 321.6 258.934C321.9 257.763 322.438 256.752 322.987 255.679C328.965 243.354 332.88 226.99 332.808 213.257C332.805 212.066 332.897 211.086 333.183 209.938C333.559 209.938 333.935 209.938 334.321 209.938C334.32 209.682 334.318 209.425 334.315 209.161C334.308 207.996 334.303 206.832 334.298 205.668C334.295 205.264 334.291 204.86 334.288 204.444C334.287 204.055 334.286 203.666 334.284 203.266C334.282 202.908 334.28 202.55 334.278 202.181C334.321 201.208 334.321 201.208 334.505 200.503C334.721 199.606 334.793 198.765 334.848 197.844C334.871 197.48 334.894 197.115 334.917 196.739C334.94 196.348 334.963 195.958 334.987 195.555C335.012 195.153 335.036 194.751 335.062 194.336C335.14 193.052 335.217 191.768 335.294 190.484C335.347 189.613 335.4 188.742 335.453 187.871C335.583 185.737 335.712 183.603 335.839 181.469Z" fill="#1B4F88"/>
<path d="M191.774 67.4761C192.941 67.606 194.109 67.7336 195.276 67.8615C206.431 69.0922 217.527 70.3786 228.471 72.9055C228.947 73.0143 228.947 73.0143 229.432 73.1252C259.628 80.0447 291.637 92.295 311.178 117.697C311.475 118.064 311.773 118.431 312.079 118.809C323.15 132.579 328.836 149.527 332.044 166.665C332.147 167.188 332.147 167.188 332.252 167.722C335.715 185.499 331.464 204.544 325.71 221.363C325.304 222.558 324.953 223.761 324.623 224.98C324.285 226.141 323.867 227.042 323.191 228.043C322.137 229.686 321.395 231.394 320.639 233.188C316.543 242.542 310.424 251.981 303.851 259.783C302.635 261.238 301.484 262.725 300.353 264.247C298.323 266.922 296.038 269.279 293.656 271.64C293.221 272.075 292.785 272.511 292.35 272.947C291.446 273.852 290.539 274.755 289.631 275.657C288.478 276.802 287.33 277.951 286.182 279.101C285.286 279.999 284.389 280.895 283.49 281.79C283.066 282.212 282.643 282.636 282.22 283.059C279.871 285.41 277.492 287.63 274.889 289.701C273.649 290.69 272.463 291.738 271.271 292.784C269.873 294.005 268.526 295.135 266.908 296.058C265.586 296.74 265.586 296.74 265.198 297.932C264.255 299.599 263.048 300.177 261.407 301.088C258.964 302.51 256.64 304.005 254.388 305.714C254.148 305.896 253.907 306.078 253.659 306.265C252.534 307.128 251.449 308.015 250.391 308.96C248.563 310.544 246.522 311.819 244.5 313.14C242.187 314.656 239.893 316.178 237.668 317.822C236.032 319.026 234.369 320.076 232.597 321.064C230.356 322.346 228.235 323.722 226.147 325.239C222.647 327.769 218.974 329.979 215.27 332.196C213.995 332.962 212.724 333.735 211.455 334.511C206.152 337.751 200.818 340.932 195.44 344.047C193.549 345.144 191.661 346.248 189.773 347.35C189.014 347.794 188.254 348.237 187.494 348.681C185.986 349.561 184.478 350.441 182.971 351.323C178.634 353.858 174.289 356.378 169.937 358.887C166.038 361.136 162.15 363.405 158.264 365.677C157.156 366.324 156.048 366.971 154.939 367.617C149.435 370.826 143.939 374.048 138.444 377.272C136.371 378.489 134.297 379.706 132.223 380.922C131.077 381.594 129.932 382.265 128.787 382.937C128.328 383.206 127.87 383.475 127.411 383.744C127.184 383.877 126.957 384.01 126.724 384.147C122.369 386.702 118.013 389.256 113.658 391.81C113.431 391.943 113.205 392.076 112.971 392.213C112.512 392.482 112.054 392.751 111.595 393.02C110.451 393.691 109.307 394.362 108.163 395.033C106.076 396.258 103.988 397.482 101.9 398.706C97.2165 401.45 92.5348 404.198 87.8637 406.965C85.2118 408.534 82.5545 410.094 79.8958 411.652C75.3886 414.294 70.8826 416.937 66.3914 419.605C65.2552 420.279 64.1162 420.947 62.9773 421.616C57.9024 424.609 53.0308 427.782 48.2611 431.24C47.6789 431.659 47.0964 432.078 46.5139 432.496C45.0971 433.516 43.684 434.54 42.2719 435.566C41.4295 436.177 40.5856 436.786 39.7412 437.394C35.9087 440.154 32.0998 442.946 28.3019 445.754C26.5005 447.085 24.6969 448.413 22.8937 449.742C21.0565 451.096 19.2206 452.452 17.3857 453.81C16.4825 454.476 15.5773 455.14 14.6718 455.804C13.5848 456.601 12.5078 457.409 11.4381 458.23C10.9713 458.581 10.5045 458.932 10.0377 459.283C9.64054 459.587 9.24342 459.891 8.83428 460.205C7.45837 460.963 6.55823 460.977 5.01074 460.848C5.24929 458.26 5.69723 455.786 6.29118 453.257C6.41002 452.714 6.41002 452.714 6.53126 452.161C6.61147 451.818 6.69167 451.475 6.77431 451.121C6.88096 450.656 6.88096 450.656 6.98975 450.181C7.08787 449.944 7.18599 449.706 7.28708 449.461C7.66267 449.335 8.03827 449.21 8.42525 449.081C8.47122 448.701 8.51719 448.321 8.56455 447.929C8.62866 447.419 8.69289 446.91 8.75721 446.4C8.78705 446.151 8.81688 445.902 8.84761 445.645C9.0653 443.944 9.38452 442.354 9.9428 440.73C10.1932 440.605 10.4436 440.48 10.7016 440.35C11.0584 439.232 11.3741 438.123 11.6738 436.989C12.9386 432.39 14.4253 427.875 15.9423 423.354C16.3939 422.007 16.8424 420.66 17.2905 419.312C18.8038 414.776 20.3656 410.271 22.0833 405.808C22.9967 403.384 22.9967 403.384 23.8166 400.928C24.652 398.255 25.8083 395.757 27.0153 393.234C27.1238 393.007 27.2323 392.78 27.344 392.546C29.0307 389.043 30.9283 385.941 33.3529 382.91C34.2109 381.798 34.9728 380.624 35.7413 379.45C36.0533 378.976 36.3655 378.503 36.6779 378.029C36.8344 377.792 36.9909 377.555 37.1521 377.31C38.5094 375.268 39.905 373.252 41.3034 371.238C41.6338 370.762 41.9632 370.285 42.2915 369.807C45.4437 365.224 49.0297 361.1 52.7708 356.992C53.5804 356.072 54.3339 355.123 55.0901 354.159C58.4731 349.985 62.3953 346.148 66.6215 342.834C67.7552 341.919 68.8217 340.942 69.8863 339.948C71.6248 338.332 73.4145 336.805 75.2645 335.316C76.2078 334.549 77.1338 333.764 78.0554 332.971C80.6376 330.752 83.3129 328.676 86.0267 326.621C87.4555 325.538 88.8671 324.435 90.2759 323.326C93.5423 320.759 96.8847 318.33 100.294 315.957C102.252 314.585 104.176 313.164 106.097 311.741C109.245 309.425 112.471 307.227 115.704 305.032C116.457 304.52 117.209 304.006 117.961 303.491C118.356 303.223 118.752 302.954 119.16 302.677C119.495 302.449 119.831 302.22 120.176 301.985C121.104 301.42 121.104 301.42 122.032 301.052C123.223 300.571 124.205 299.922 125.277 299.213C127.917 297.487 130.591 295.819 133.278 294.168C134.876 293.185 136.466 292.195 138.033 291.163C138.303 290.988 138.573 290.812 138.851 290.631C139.347 290.307 139.84 289.979 140.33 289.646C142.052 288.529 143.383 288.266 145.385 288.134C145.416 287.905 145.447 287.676 145.479 287.44C145.855 286.354 146.301 286.139 147.285 285.567C147.597 285.386 147.909 285.204 148.23 285.017C148.559 284.832 148.888 284.647 149.226 284.457C149.546 284.268 149.866 284.079 150.195 283.884C152.058 282.817 153.5 282.264 155.628 282.061C156.055 281.365 156.055 281.365 156.387 280.542C157.671 279.472 158.632 278.963 160.276 278.834C160.745 278.772 161.215 278.709 161.699 278.644C161.963 278.144 162.215 277.637 162.457 277.126C163.132 276.596 163.132 276.596 163.951 276.115C164.256 275.934 164.56 275.753 164.874 275.566C165.203 275.376 165.533 275.186 165.872 274.991C166.214 274.79 166.555 274.59 166.907 274.383C167.95 273.773 168.997 273.171 170.045 272.571C170.337 272.403 170.63 272.235 170.931 272.063C175.406 269.507 179.977 267.137 184.551 264.766C186.105 263.957 187.655 263.14 189.204 262.322C194.318 259.626 199.437 256.943 204.58 254.304C209.569 251.744 214.549 249.178 219.46 246.471C224.147 243.891 228.907 241.451 233.661 238.998C239.053 236.213 244.402 233.365 249.717 230.436C251.099 229.676 252.483 228.916 253.866 228.159C254.382 227.876 254.382 227.876 254.908 227.587C257.027 226.431 259.162 225.312 261.31 224.211C265.834 221.891 270.167 219.332 274.485 216.651C279.38 213.615 284.35 210.744 289.39 207.958C296.21 204.186 302.959 200.321 309.51 196.097C310.483 195.473 311.46 194.854 312.438 194.237C318.327 190.516 324.175 186.726 329.863 182.702C330.083 182.548 330.302 182.394 330.528 182.235C331.657 181.447 331.657 181.447 332.424 180.33C332.172 180.294 331.921 180.259 331.662 180.222C330.202 179.873 328.892 179.282 327.539 178.646C327.253 178.511 326.966 178.377 326.671 178.238C324.802 177.334 323.111 176.311 321.422 175.111C318.609 173.123 315.576 171.708 312.461 170.256C310.112 169.157 307.843 167.998 305.606 166.688C300.114 163.52 294.095 161.231 288.241 158.821C287.862 158.665 287.484 158.509 287.093 158.348C286.345 158.04 285.597 157.733 284.849 157.426C282.702 156.535 280.608 155.574 278.527 154.538C268.042 149.328 256.72 145.916 245.648 142.191C244.68 141.865 243.711 141.539 242.743 141.213C242.505 141.133 242.266 141.052 242.021 140.97C237.84 139.561 233.678 138.102 229.52 136.628C220.111 133.299 210.605 130.488 200.98 127.853C200.721 127.782 200.461 127.711 200.194 127.638C197.573 126.92 194.951 126.204 192.328 125.497C178.223 121.693 178.223 121.693 172.321 118.955C171.975 118.795 171.628 118.636 171.271 118.472C164.657 115.356 158.706 111.278 153.352 106.31C153.001 105.998 152.651 105.686 152.289 105.365C149.394 102.775 146.749 100.004 144.13 97.1371C143.531 96.4868 142.924 95.8452 142.313 95.2066C136.264 88.8618 125.657 76.3745 125.657 67.2116C131.817 66.4336 137.958 66.2937 144.161 66.2244C145.188 66.2122 146.216 66.1972 147.243 66.182C162.107 65.9629 176.981 65.8261 191.774 67.4761Z" fill="#1B4F88"/>
<path d="M191.291 2.30138C191.828 2.33836 192.365 2.37517 192.901 2.41186C202.121 3.0452 211.294 3.94943 220.472 5.02275C222.216 5.2267 223.961 5.42575 225.706 5.62352C238.514 7.07857 251.29 8.75509 263.921 11.3641C264.727 11.5282 265.533 11.6922 266.339 11.8562C272.855 13.1916 279.323 14.6691 285.759 16.3463C286.437 16.5204 286.437 16.5204 287.128 16.6981C314.364 23.7411 342.15 34.6352 362.775 54.3055C363.078 54.5932 363.382 54.8809 363.694 55.1773C375.479 66.643 384.993 84.2729 385.231 100.971C385.233 101.232 385.235 101.494 385.236 101.763C385.239 102.044 385.242 102.325 385.244 102.614C385.33 114.152 385.33 114.152 384.021 119.216C383.946 119.525 383.87 119.833 383.793 120.152C382.589 125.015 380.919 129.529 378.71 134.02C378.569 134.31 378.428 134.601 378.283 134.9C374.19 143.272 368.67 150.65 362.382 157.498C361.698 158.247 361.038 159.012 360.38 159.785C357.857 162.679 355.093 165.403 352.17 167.892C351.22 168.712 350.301 169.563 349.378 170.413C347.33 172.282 345.205 174.036 343.047 175.775C342.311 176.375 341.576 176.976 340.842 177.578C340.499 177.857 340.156 178.136 339.803 178.423C339.034 179.059 338.289 179.712 337.546 180.377C337.233 180.612 336.92 180.847 336.597 181.089C336.222 180.964 335.846 180.839 335.459 180.71C335.443 180.376 335.443 180.376 335.426 180.036C335.309 177.67 335.185 175.304 335.056 172.939C335.01 172.062 334.965 171.186 334.922 170.309C334.621 164.192 333.97 158.254 332.803 152.24C332.753 151.975 332.702 151.711 332.649 151.438C331.533 145.719 329.996 140.201 327.871 134.779C327.623 134.139 327.623 134.139 327.37 133.486C324.396 125.881 321.041 119.134 316.036 112.651C315.111 111.445 314.273 110.201 313.455 108.919C308.168 100.927 300.373 93.265 292.588 87.7096C292.144 87.3743 291.701 87.0376 291.259 86.6998C282.401 79.9788 272.5 74.7961 262.636 69.7308C261.509 69.1501 260.401 68.556 259.313 67.907C255.127 65.4642 250.555 64.1092 245.96 62.646C244.227 62.0917 242.509 61.506 240.793 60.9009C231.773 57.7353 222.559 55.3795 213.288 53.0698C212.211 52.8005 211.134 52.5282 210.058 52.2548C200.821 49.8942 200.821 49.8942 191.382 48.6292C188.846 48.4271 186.456 47.9196 183.988 47.3275C179.499 46.2627 175.006 45.6577 170.425 45.1478C170.006 45.1003 169.587 45.0529 169.156 45.004C157.866 43.7316 146.641 42.9301 135.279 42.8199C134.953 42.8165 134.626 42.8132 134.29 42.8097C130.979 42.7762 127.668 42.7495 124.358 42.7492C123.113 42.7479 121.868 42.7409 120.623 42.7329C120.037 42.7306 119.451 42.731 118.865 42.7343C118.056 42.7388 117.247 42.734 116.438 42.7273C115.754 42.7274 115.754 42.7274 115.055 42.7275C113.663 42.5001 113.234 42.1182 112.378 41.0198C111.921 40.0752 111.921 40.0752 111.523 39.0032C110.386 36.1366 108.941 33.4753 107.47 30.7708C104.887 25.9979 102.388 21.2267 100.261 16.2277C98.9482 13.1449 98.9482 13.1449 97.5331 10.1082C97.412 9.85956 97.2909 9.61089 97.1662 9.35469C96.8508 8.71547 96.5291 8.0794 96.2067 7.44367C95.7387 6.23568 95.4927 5.19418 95.2731 3.9254C95.2073 3.55001 95.1416 3.17462 95.0739 2.78785C95.0252 2.50205 94.9765 2.21625 94.9263 1.92179C126.954 0.637626 159.301 0.0116018 191.291 2.30138Z" fill="#EFAA26"/>
<path d="M191.775 67.4761C192.942 67.606 194.109 67.7336 195.276 67.8615C206.431 69.0922 217.527 70.3786 228.471 72.9055C228.947 73.0143 228.947 73.0143 229.432 73.1252C259.628 80.0447 291.637 92.295 311.178 117.697C311.624 118.248 311.624 118.248 312.079 118.809C323.133 132.558 328.884 149.536 332.045 166.665C332.113 167.036 332.182 167.407 332.252 167.789C333.032 172.126 333.337 176.305 333.183 180.71C328.54 179.717 324.324 177.119 320.426 174.494C317.827 172.747 315.043 171.457 312.209 170.139C309.96 169.087 307.796 167.964 305.653 166.712C300.143 163.538 294.113 161.238 288.241 158.821C287.863 158.665 287.484 158.509 287.093 158.348C286.346 158.04 285.598 157.733 284.849 157.426C282.702 156.535 280.608 155.574 278.527 154.538C268.042 149.328 256.72 145.916 245.648 142.191C244.68 141.865 243.711 141.539 242.743 141.213C242.505 141.133 242.266 141.052 242.021 140.97C237.84 139.561 233.678 138.102 229.52 136.628C220.111 133.299 210.605 130.488 200.98 127.853C200.721 127.782 200.462 127.711 200.194 127.638C197.573 126.92 194.952 126.204 192.328 125.497C178.223 121.693 178.223 121.693 172.322 118.955C171.975 118.795 171.628 118.636 171.271 118.472C164.658 115.356 158.706 111.278 153.352 106.31C153.002 105.998 152.651 105.686 152.29 105.365C149.395 102.775 146.749 100.004 144.13 97.1371C143.531 96.4868 142.924 95.8452 142.313 95.2066C136.264 88.8618 125.657 76.3745 125.657 67.2116C131.817 66.4336 137.959 66.2937 144.161 66.2244C145.188 66.2122 146.216 66.1972 147.243 66.182C162.107 65.9629 176.982 65.8261 191.775 67.4761Z" fill="#F0AB26"/>
<path d="M739.509 571.31C744.93 575.946 748.011 581.745 748.994 588.771C749.033 589.732 749.057 590.684 749.061 591.645C749.063 591.924 749.066 592.202 749.068 592.49C749.076 593.407 749.08 594.325 749.084 595.243C749.086 595.56 749.087 595.876 749.089 596.202C749.097 597.881 749.102 599.559 749.106 601.238C749.11 602.954 749.123 604.67 749.138 606.386C749.148 607.72 749.151 609.054 749.152 610.389C749.154 611.02 749.159 611.652 749.166 612.283C749.25 620.209 747.583 627.48 742.165 633.563C741.944 633.819 741.724 634.074 741.496 634.338C737.535 638.634 731.452 641.596 725.585 641.981C716.06 642.181 707.93 640.892 700.709 634.221C698.939 632.448 697.33 630.753 697.16 628.153C697.428 626.542 697.721 625.931 698.914 624.832C700.566 623.679 701.845 623.529 703.781 623.831C705.588 624.361 706.631 625.652 707.759 627.086C710.268 630.186 714.402 631.833 718.263 632.424C723.608 632.822 728.183 632.327 732.585 628.996C736.19 625.839 738.303 621.238 738.75 616.481C738.824 614.456 738.795 612.433 738.75 610.407C738.575 610.646 738.4 610.885 738.22 611.131C734.475 616.047 729.745 619.276 723.575 620.277C716.35 620.984 709.988 619.45 704.155 615.057C698.74 610.514 695.677 603.953 694.919 596.975C694.225 588.912 695.762 580.805 701.079 574.451C710.707 563.616 728.135 562.701 739.509 571.31ZM709.591 579.904C705.589 584.316 704.713 589.313 704.878 595.047C704.976 597.024 705.295 598.732 706.123 600.538C706.28 600.884 706.437 601.229 706.598 601.585C708.681 605.752 711.823 608.781 716.248 610.313C720.973 611.799 725.528 611.387 730.048 609.411C734.353 607.076 737.117 603.292 738.544 598.68C739.923 593.33 739.295 587.706 736.661 582.84C734.368 579.188 731.272 576.692 727.114 575.448C720.511 573.95 714.581 575.26 709.591 579.904Z" fill="#1B4F88"/>
<path d="M502.533 565.829C503.109 565.833 503.109 565.833 503.695 565.838C509.48 565.966 513.442 568.119 517.402 572.244C517.671 572.533 517.671 572.533 517.946 572.828C518.314 572.499 518.682 572.17 519.06 571.831C525.32 566.508 531.565 565.495 539.571 565.995C543.901 566.716 547.468 569.288 550.262 572.605C553.029 576.538 554.1 580.799 554.104 585.53C554.107 585.871 554.111 586.213 554.114 586.564C554.123 587.681 554.126 588.797 554.129 589.914C554.132 590.695 554.136 591.476 554.139 592.257C554.145 593.889 554.148 595.521 554.149 597.153C554.152 599.243 554.166 601.332 554.183 603.422C554.194 605.032 554.197 606.643 554.198 608.254C554.199 609.025 554.204 609.795 554.212 610.566C554.222 611.642 554.22 612.718 554.215 613.795C554.224 614.27 554.224 614.27 554.232 614.754C554.213 616.328 554.085 617.316 553.077 618.56C551.807 619.793 551.078 620.253 549.298 620.3C547.582 620.219 546.647 620.088 545.262 619.019C543.843 617.112 543.635 615.743 543.648 613.378C543.646 612.91 543.646 612.91 543.643 612.433C543.641 611.756 543.64 611.079 543.64 610.402C543.641 609.328 543.636 608.253 543.629 607.179C543.612 604.124 543.603 601.07 543.6 598.015C543.598 596.145 543.589 594.275 543.575 592.405C543.572 591.696 543.571 590.986 543.573 590.277C543.656 584.03 543.656 584.03 540.947 578.545C538.027 576.25 535.392 575.048 531.604 575.485C528.615 576.054 525.987 577.179 524.193 579.729C522.68 582.35 522.006 584.702 522.022 587.739C522.021 588.046 522.02 588.353 522.018 588.669C522.016 589.333 522.015 589.996 522.015 590.66C522.016 591.712 522.011 592.763 522.004 593.815C521.987 596.804 521.977 599.793 521.975 602.782C521.973 604.614 521.964 606.445 521.95 608.276C521.946 608.972 521.945 609.668 521.947 610.364C521.95 611.339 521.944 612.314 521.935 613.288C521.94 613.716 521.94 613.716 521.944 614.152C521.912 616.217 521.401 617.435 520.222 619.138C518.577 620.272 517.266 620.489 515.29 620.277C513.504 619.611 512.526 618.84 511.496 617.24C511.35 616.187 511.29 615.285 511.301 614.233C511.299 613.936 511.296 613.639 511.293 613.333C511.286 612.353 511.289 611.373 511.292 610.393C511.288 609.707 511.284 609.022 511.278 608.337C511.266 606.533 511.262 604.728 511.261 602.924C511.257 600.044 511.244 597.165 511.226 594.285C511.221 593.285 511.221 592.284 511.222 591.284C511.342 584.344 511.342 584.344 508.316 578.333C505.799 576.112 503.185 575.354 499.912 575.403C497.187 575.641 494.462 576.528 492.527 578.522C490.318 581.528 489.376 584.393 489.389 588.132C489.386 588.588 489.386 588.588 489.383 589.054C489.379 589.709 489.377 590.365 489.376 591.021C489.375 592.06 489.368 593.099 489.361 594.137C489.34 597.09 489.328 600.042 489.319 602.994C489.313 604.804 489.301 606.613 489.287 608.423C489.282 609.111 489.28 609.799 489.28 610.486C489.28 611.448 489.273 612.41 489.264 613.372C489.267 613.796 489.267 613.796 489.27 614.228C489.245 616.015 488.91 617.236 487.974 618.758C486.742 619.875 485.731 620.246 484.062 620.372C482.149 620.242 481.012 619.682 479.574 618.431C478.479 616.582 478.651 614.788 478.661 612.676C478.657 612.214 478.653 611.751 478.649 611.275C478.64 610.009 478.638 608.743 478.64 607.477C478.641 606.419 478.637 605.36 478.634 604.302C478.625 601.804 478.625 599.306 478.629 596.808C478.634 594.235 478.625 591.662 478.608 589.089C478.595 586.877 478.591 584.664 478.593 582.452C478.594 581.132 478.592 579.812 478.582 578.492C478.571 577.019 478.578 575.546 478.586 574.073C478.581 573.639 478.575 573.204 478.569 572.756C478.6 570.364 478.847 568.948 480.546 567.209C482.039 566.076 483.916 566.158 485.698 566.375C487.627 567.304 488.225 568.275 489.112 570.171C489.452 569.965 489.791 569.759 490.141 569.546C490.604 569.272 491.068 568.998 491.531 568.723C491.863 568.52 491.863 568.52 492.202 568.313C495.508 566.375 498.731 565.789 502.533 565.829Z" fill="#1B4F88"/>
<path d="M1379.54 544.026C1380.84 545.244 1381.38 546.539 1381.59 548.298C1381.59 548.765 1381.6 549.232 1381.6 549.713C1381.6 549.973 1381.61 550.232 1381.61 550.5C1381.62 551.35 1381.63 552.2 1381.63 553.05C1381.64 553.643 1381.64 554.235 1381.65 554.828C1381.67 556.382 1381.68 557.936 1381.69 559.489C1381.7 561.077 1381.72 562.665 1381.74 564.253C1381.77 567.364 1381.79 570.476 1381.82 573.587C1382.2 573.234 1382.2 573.234 1382.59 572.873C1382.93 572.565 1383.27 572.256 1383.62 571.939C1383.95 571.633 1384.28 571.327 1384.63 571.011C1385.88 569.943 1387.14 569.195 1388.62 568.51C1389.02 568.323 1389.02 568.323 1389.42 568.133C1390.17 567.788 1390.92 567.458 1391.68 567.134C1392.19 566.915 1392.19 566.915 1392.7 566.692C1398.45 564.711 1405.69 565.657 1411.08 568.154C1417.39 571.5 1421.95 577.041 1424.09 583.836C1426.36 591.795 1425.53 600.335 1421.66 607.617C1417.92 613.793 1412.34 617.865 1405.41 619.826C1397.97 621.47 1390.3 620.623 1383.64 616.822C1377.21 612.465 1373.12 606.409 1371.36 598.884C1371.18 597.812 1371.14 596.809 1371.14 595.722C1371.13 595.292 1371.13 594.861 1371.13 594.418C1371.13 593.949 1371.13 593.48 1371.13 592.997C1371.12 592.501 1371.12 592.004 1371.12 591.493C1371.11 589.851 1371.11 588.208 1371.1 586.566C1371.1 585.999 1371.1 585.433 1371.1 584.866C1371.09 582.206 1371.08 579.546 1371.08 576.885C1371.08 573.817 1371.07 570.75 1371.05 567.682C1371.04 565.308 1371.04 562.934 1371.03 560.56C1371.03 559.143 1371.03 557.726 1371.02 556.309C1371.01 554.729 1371.01 553.149 1371.01 551.568C1371.01 551.1 1371 550.632 1371 550.15C1371.01 547.739 1371.04 546.171 1372.71 544.358C1374.6 543.014 1377.45 543.244 1379.54 544.026ZM1385.32 580.681C1381.54 585.295 1380.52 590.571 1381.06 596.362C1381.92 600.936 1384.14 605.275 1387.89 608.13C1392.58 610.971 1397.37 612.028 1402.8 610.907C1408.1 609.091 1411.54 605.535 1413.98 600.572C1415.81 595.964 1415.85 590.78 1414.19 586.112C1412.04 581.24 1408.77 577.865 1403.82 575.864C1397.13 573.523 1390.11 575.648 1385.32 580.681Z" fill="#1B4F88"/>
<path d="M1628.45 572.306C1633.45 576.914 1636.83 583.327 1637.23 590.175C1637.28 591.847 1637.29 593.52 1637.3 595.193C1637.3 595.647 1637.3 595.647 1637.3 596.111C1637.32 597.712 1637.32 599.312 1637.33 600.912C1637.33 602.559 1637.35 604.205 1637.37 605.852C1637.38 607.125 1637.39 608.399 1637.39 609.673C1637.39 610.28 1637.4 610.887 1637.41 611.494C1637.49 616.813 1637.49 616.813 1636.04 618.557C1634.3 619.982 1633.22 620.069 1631.01 620.057C1629.33 619.807 1628.31 618.946 1627.28 617.62C1626.9 616.478 1626.79 615.518 1626.69 614.322C1626.66 613.945 1626.62 613.568 1626.59 613.179C1626.57 612.891 1626.54 612.602 1626.52 612.305C1626.26 612.572 1626 612.838 1625.74 613.112C1625.37 613.477 1625 613.841 1624.62 614.203C1624.45 614.382 1624.27 614.56 1624.09 614.743C1619.61 618.979 1613.51 620.482 1607.5 620.436C1600.68 620.211 1594.57 617.525 1589.86 612.523C1587.1 609.357 1585.29 605.668 1584.03 601.677C1583.9 601.261 1583.9 601.261 1583.76 600.836C1581.69 593.086 1583.15 584.756 1587.02 577.855C1590.83 571.995 1596.77 567.838 1603.57 566.194C1612.35 564.357 1621.63 566.338 1628.45 572.306ZM1598.28 579.613C1594.36 583.837 1592.89 588.353 1592.96 594.101C1593.15 599.177 1595.24 603.616 1598.92 607.134C1602.45 610.071 1606.73 611.381 1611.27 611.284C1615.97 610.831 1620.24 608.762 1623.27 605.117C1626.8 600.328 1627.98 594.999 1627.1 589.087C1626 583.992 1623.27 579.957 1618.93 577.051C1612.16 573.191 1603.88 574.213 1598.28 579.613Z" fill="#1B4F88"/>
<path d="M1482.38 572.306C1487.38 576.914 1490.77 583.327 1491.16 590.175C1491.21 591.847 1491.23 593.52 1491.23 595.193C1491.24 595.647 1491.24 595.647 1491.24 596.111C1491.25 597.712 1491.26 599.312 1491.26 600.912C1491.27 602.559 1491.28 604.205 1491.31 605.852C1491.32 607.125 1491.32 608.399 1491.33 609.673C1491.33 610.28 1491.33 610.887 1491.34 611.494C1491.42 616.813 1491.42 616.813 1489.97 618.557C1488.24 619.982 1487.16 620.069 1484.95 620.057C1483.27 619.807 1482.24 618.946 1481.22 617.62C1480.84 616.478 1480.72 615.518 1480.62 614.322C1480.59 613.945 1480.56 613.568 1480.53 613.179C1480.5 612.891 1480.48 612.602 1480.46 612.305C1480.2 612.572 1479.94 612.838 1479.67 613.112C1479.3 613.477 1478.93 613.841 1478.56 614.203C1478.38 614.382 1478.21 614.56 1478.03 614.743C1473.55 618.979 1467.44 620.482 1461.44 620.436C1454.61 620.211 1448.5 617.525 1443.8 612.523C1441.04 609.357 1439.22 605.668 1437.97 601.677C1437.83 601.261 1437.83 601.261 1437.7 600.836C1435.63 593.086 1437.09 584.756 1440.96 577.855C1444.77 571.995 1450.71 567.838 1457.5 566.194C1466.29 564.357 1475.57 566.338 1482.38 572.306ZM1452.22 579.613C1448.29 583.837 1446.82 588.353 1446.89 594.101C1447.08 599.177 1449.18 603.616 1452.86 607.134C1456.39 610.071 1460.66 611.381 1465.2 611.284C1469.91 610.831 1474.18 608.762 1477.21 605.117C1480.73 600.328 1481.91 594.999 1481.04 589.087C1479.93 583.992 1477.21 579.957 1472.87 577.051C1466.1 573.191 1457.81 574.213 1452.22 579.613Z" fill="#1B4F88"/>
<path d="M1141.69 572.306C1146.69 576.914 1150.07 583.327 1150.47 590.175C1150.52 591.847 1150.53 593.52 1150.54 595.193C1150.55 595.647 1150.55 595.647 1150.55 596.111C1150.56 597.712 1150.57 599.312 1150.57 600.912C1150.57 602.559 1150.59 604.205 1150.61 605.852C1150.63 607.125 1150.63 608.399 1150.63 609.673C1150.64 610.28 1150.64 610.887 1150.65 611.494C1150.73 616.813 1150.73 616.813 1149.28 618.557C1147.55 619.982 1146.46 620.069 1144.26 620.057C1142.57 619.807 1141.55 618.946 1140.52 617.62C1140.14 616.478 1140.03 615.518 1139.93 614.322C1139.9 613.945 1139.87 613.568 1139.83 613.179C1139.81 612.891 1139.79 612.602 1139.76 612.305C1139.51 612.572 1139.25 612.838 1138.98 613.112C1138.61 613.477 1138.24 613.841 1137.87 614.203C1137.69 614.382 1137.52 614.56 1137.34 614.743C1132.85 618.979 1126.75 620.482 1120.75 620.436C1113.92 620.211 1107.81 617.525 1103.11 612.523C1100.34 609.357 1098.53 605.668 1097.27 601.677C1097.14 601.261 1097.14 601.261 1097 600.836C1094.94 593.086 1096.4 584.756 1100.27 577.855C1104.08 571.995 1110.01 567.838 1116.81 566.194C1125.59 564.357 1134.88 566.338 1141.69 572.306ZM1111.52 579.613C1107.6 583.837 1106.13 588.353 1106.2 594.101C1106.39 599.177 1108.48 603.616 1112.16 607.134C1115.7 610.071 1119.97 611.381 1124.51 611.284C1129.22 610.831 1133.48 608.762 1136.52 605.117C1140.04 600.328 1141.22 594.999 1140.35 589.087C1139.24 583.992 1136.52 579.957 1132.18 577.051C1125.41 573.191 1117.12 574.213 1111.52 579.613Z" fill="#1B4F88"/>
<path d="M977.414 572.306C982.413 576.914 985.798 583.327 986.193 590.175C986.246 591.847 986.258 593.52 986.266 595.193C986.269 595.647 986.269 595.647 986.272 596.111C986.284 597.712 986.291 599.312 986.294 600.912C986.298 602.559 986.317 604.205 986.338 605.852C986.352 607.125 986.356 608.399 986.357 609.673C986.36 610.28 986.366 610.887 986.376 611.494C986.457 616.813 986.457 616.813 985.005 618.557C983.27 619.982 982.189 620.069 979.981 620.057C978.298 619.807 977.273 618.946 976.248 617.62C975.867 616.478 975.753 615.518 975.655 614.322C975.623 613.945 975.591 613.568 975.559 613.179C975.536 612.891 975.513 612.602 975.489 612.305C975.231 612.572 974.972 612.838 974.706 613.112C974.336 613.477 973.964 613.841 973.592 614.203C973.417 614.382 973.242 614.56 973.061 614.743C968.578 618.979 962.477 620.482 956.472 620.436C949.646 620.211 943.534 617.525 938.829 612.523C936.068 609.357 934.256 605.668 932.997 601.677C932.865 601.261 932.865 601.261 932.729 600.836C930.662 593.086 932.12 584.756 935.991 577.855C939.801 571.995 945.738 567.838 952.534 566.194C961.317 564.357 970.602 566.338 977.414 572.306ZM947.248 579.613C943.327 583.837 941.855 588.353 941.924 594.101C942.115 599.177 944.208 603.616 947.888 607.134C951.419 610.071 955.693 611.381 960.233 611.284C964.943 610.831 969.207 608.762 972.24 605.117C975.767 600.328 976.944 594.999 976.07 589.087C974.963 583.992 972.24 579.957 967.901 577.051C961.129 573.191 952.845 574.213 947.248 579.613Z" fill="#1B4F88"/>
<path d="M805.93 572.306C810.929 576.914 814.314 583.327 814.709 590.175C814.762 591.847 814.774 593.52 814.782 595.193C814.785 595.647 814.785 595.647 814.789 596.111C814.8 597.712 814.807 599.312 814.81 600.912C814.814 602.559 814.833 604.205 814.854 605.852C814.868 607.125 814.872 608.399 814.873 609.673C814.876 610.28 814.882 610.887 814.892 611.494C814.973 616.813 814.973 616.813 813.522 618.557C811.786 619.982 810.705 620.069 808.497 620.057C806.814 619.807 805.79 618.946 804.764 617.62C804.383 616.478 804.269 615.518 804.171 614.322C804.139 613.945 804.107 613.568 804.075 613.179C804.052 612.891 804.029 612.602 804.005 612.305C803.747 612.572 803.489 612.838 803.223 613.112C802.852 613.477 802.48 613.841 802.108 614.203C801.933 614.382 801.758 614.56 801.578 614.743C797.094 618.979 790.993 620.482 784.988 620.436C778.162 620.211 772.05 617.525 767.346 612.523C764.584 609.357 762.772 605.668 761.513 601.677C761.381 601.261 761.381 601.261 761.245 600.836C759.178 593.086 760.636 584.756 764.507 577.855C768.317 571.995 774.254 567.838 781.05 566.194C789.834 564.357 799.118 566.338 805.93 572.306ZM775.764 579.613C771.843 583.837 770.371 588.353 770.44 594.101C770.631 599.177 772.724 603.616 776.404 607.134C779.935 610.071 784.209 611.381 788.749 611.284C793.459 610.831 797.723 608.762 800.756 605.117C804.283 600.328 805.46 594.999 804.586 589.087C803.479 583.992 800.756 579.957 796.417 577.051C789.646 573.191 781.361 574.213 775.764 579.613Z" fill="#1B4F88"/>
<path d="M1351.47 571.546C1356.56 576.307 1358.62 583.129 1359.17 589.88C1359.29 593.646 1359.29 593.646 1358.41 595.129C1356.5 596.992 1354.46 596.848 1351.94 596.829C1351.57 596.829 1351.2 596.829 1350.82 596.829C1349.6 596.828 1348.37 596.823 1347.15 596.817C1346.31 596.815 1345.46 596.814 1344.61 596.813C1342.38 596.81 1340.15 596.803 1337.92 596.795C1335.64 596.787 1333.37 596.783 1331.09 596.78C1326.63 596.771 1322.16 596.758 1317.7 596.742C1317.93 597.461 1318.16 598.178 1318.39 598.895C1318.52 599.295 1318.65 599.695 1318.78 600.107C1320.26 604.184 1322.91 607.125 1326.71 609.198C1331.34 611.32 1336.41 611.914 1341.3 610.429C1343.51 609.594 1345.6 608.469 1347.67 607.337C1349.46 606.441 1351.1 606.399 1352.98 606.991C1354.12 607.94 1354.12 607.94 1354.88 608.889C1355 609.015 1355.13 609.14 1355.26 609.269C1355.56 610.87 1355.69 612.411 1354.77 613.814C1349.02 619.195 1340.57 620.562 1333.03 620.327C1325.56 619.919 1319.17 616.423 1314.04 611.102C1308.91 604.94 1307.35 597.156 1308.01 589.314C1308.63 583.529 1310.83 578.343 1314.66 573.967C1314.88 573.71 1315.1 573.453 1315.32 573.189C1324.5 563.102 1341.31 563.338 1351.47 571.546ZM1321.87 579.281C1319.77 581.835 1317.7 584.97 1317.7 588.391C1328.22 588.391 1338.73 588.391 1349.57 588.391C1348.64 583.762 1347.34 579.95 1343.5 577.004C1336.86 572.747 1327.46 573.564 1321.87 579.281Z" fill="#1B4F88"/>
<path d="M610.899 571.546C615.989 576.307 618.054 583.129 618.605 589.88C618.725 593.646 618.725 593.646 617.844 595.129C615.93 596.992 613.893 596.848 611.371 596.829C611.001 596.829 610.631 596.829 610.249 596.829C609.028 596.828 607.806 596.823 606.585 596.817C605.737 596.815 604.889 596.814 604.041 596.813C601.812 596.81 599.582 596.803 597.352 596.795C595.076 596.787 592.8 596.783 590.524 596.78C586.059 596.771 581.595 596.758 577.13 596.742C577.36 597.461 577.592 598.178 577.825 598.895C577.955 599.295 578.084 599.695 578.216 600.107C579.694 604.184 582.344 607.125 586.141 609.198C590.77 611.32 595.837 611.914 600.73 610.429C602.942 609.594 605.028 608.469 607.101 607.337C608.887 606.441 610.53 606.399 612.414 606.991C613.552 607.94 613.552 607.94 614.311 608.889C614.436 609.015 614.561 609.14 614.69 609.269C614.987 610.87 615.118 612.411 614.199 613.814C608.453 619.195 600.002 620.562 592.464 620.327C584.987 619.919 578.602 616.423 573.471 611.102C568.343 604.94 566.777 597.156 567.443 589.314C568.065 583.529 570.264 578.343 574.095 573.967C574.312 573.71 574.529 573.453 574.752 573.189C583.933 563.102 600.739 563.338 610.899 571.546ZM581.304 579.281C579.201 581.835 577.13 584.97 577.13 588.391C587.647 588.391 598.164 588.391 608.999 588.391C608.074 583.762 606.768 579.95 602.929 577.004C596.292 572.747 586.888 573.564 581.304 579.281Z" fill="#1B4F88"/>
<path d="M1541.92 543.599C1543.21 544.214 1543.92 544.63 1544.63 545.877C1545.11 547.56 1545.05 549.183 1545.04 550.925C1545.04 551.318 1545.04 551.71 1545.04 552.115C1545.04 553.411 1545.03 554.707 1545.03 556.003C1545.03 556.902 1545.02 557.802 1545.02 558.701C1545.02 561.067 1545.01 563.433 1545 565.798C1545 568.213 1544.99 570.628 1544.99 573.042C1544.98 577.779 1544.97 582.516 1544.95 587.252C1545.44 586.83 1545.92 586.408 1546.4 585.986C1546.67 585.751 1546.94 585.516 1547.22 585.274C1548.18 584.427 1549.13 583.564 1550.07 582.697C1551.51 581.387 1552.96 580.093 1554.43 578.817C1555.32 578.031 1556.21 577.233 1557.09 576.434C1558.46 575.203 1559.83 573.987 1561.22 572.782C1562.19 571.925 1563.14 571.047 1564.09 570.171C1564.79 569.537 1565.49 568.905 1566.2 568.273C1566.49 567.998 1566.79 567.723 1567.09 567.44C1568.56 566.156 1569.62 565.446 1571.6 565.355C1573.25 565.477 1574.17 565.892 1575.3 567.134C1576.27 568.588 1576.38 569.565 1576.35 571.292C1575.76 573.655 1573.68 575.105 1571.89 576.624C1571.62 576.866 1571.35 577.107 1571.07 577.356C1570.59 577.782 1570.11 578.204 1569.62 578.62C1568.72 579.395 1567.84 580.191 1566.96 580.989C1565.59 582.226 1564.21 583.448 1562.81 584.658C1562.22 585.187 1561.62 585.724 1561.03 586.265C1560.7 586.575 1560.36 586.885 1560.01 587.205C1559.7 587.494 1559.39 587.782 1559.07 588.08C1558.23 588.771 1558.23 588.771 1557.09 589.15C1558.08 590.948 1559.34 592.45 1560.65 594.014C1561.13 594.591 1561.61 595.167 1562.09 595.744C1562.33 596.036 1562.57 596.328 1562.82 596.629C1563.93 597.972 1565.03 599.326 1566.13 600.681C1567.48 602.353 1568.84 604.023 1570.21 605.686C1570.6 606.173 1570.6 606.173 1571 606.669C1571.69 607.508 1572.39 608.331 1573.1 609.152C1573.52 609.649 1573.94 610.147 1574.36 610.645C1574.56 610.872 1574.76 611.098 1574.96 611.332C1576.4 613.063 1576.91 614.597 1576.82 616.861C1576.35 618.341 1575.84 618.999 1574.69 620.04C1573.09 620.807 1571.73 621.051 1569.99 620.657C1568.19 619.659 1567.03 618.422 1565.82 616.789C1565.46 616.313 1565.09 615.837 1564.73 615.362C1564.54 615.111 1564.35 614.861 1564.15 614.603C1563.09 613.244 1561.99 611.922 1560.89 610.597C1558.74 608.006 1556.65 605.381 1554.58 602.726C1553.63 601.503 1552.67 600.286 1551.71 599.067C1551.36 598.618 1551 598.168 1550.65 597.718C1550.4 597.396 1550.15 597.074 1549.88 596.742C1548.09 597.581 1546.59 598.61 1545.33 600.159C1544.93 601.421 1544.95 602.593 1544.99 603.909C1544.99 604.262 1544.99 604.615 1544.99 604.979C1544.99 606.101 1545 607.222 1545.02 608.344C1545.03 609.467 1545.04 610.589 1545.04 611.713C1545.04 612.409 1545.05 613.106 1545.06 613.803C1545.08 615.753 1544.89 617.065 1543.81 618.759C1542.65 619.942 1541.7 620.071 1540.07 620.087C1538.54 620.054 1537.54 619.978 1536.35 618.996C1535 617.468 1535.03 616.427 1535.03 614.469C1535.03 614.181 1535.03 613.892 1535.02 613.594C1535.02 612.621 1535.02 611.647 1535.02 610.674C1535.01 609.978 1535.01 609.283 1535.01 608.587C1535 606.297 1534.99 604.008 1534.98 601.718C1534.98 600.931 1534.98 600.144 1534.98 599.356C1534.97 596.081 1534.96 592.806 1534.96 589.531C1534.95 584.833 1534.94 580.136 1534.92 575.439C1534.9 572.138 1534.9 568.838 1534.89 565.537C1534.89 563.565 1534.89 561.592 1534.88 559.62C1534.86 557.764 1534.86 555.909 1534.87 554.053C1534.87 553.372 1534.86 552.691 1534.86 552.01C1534.85 551.08 1534.85 550.15 1534.86 549.22C1534.85 548.951 1534.85 548.682 1534.84 548.405C1534.88 546.284 1535.54 545.418 1536.99 543.979C1538.48 543.229 1540.28 543.433 1541.92 543.599Z" fill="#1B4F88"/>
<path d="M1266.86 543.599C1268.16 544.214 1268.86 544.63 1269.57 545.877C1270.05 547.56 1269.99 549.183 1269.98 550.925C1269.98 551.318 1269.98 551.71 1269.98 552.115C1269.98 553.411 1269.98 554.707 1269.97 556.003C1269.97 556.902 1269.97 557.802 1269.97 558.701C1269.96 561.067 1269.96 563.433 1269.95 565.798C1269.94 568.213 1269.94 570.628 1269.93 573.042C1269.92 577.779 1269.91 582.516 1269.9 587.252C1270.38 586.83 1270.86 586.408 1271.34 585.986C1271.61 585.751 1271.88 585.516 1272.16 585.274C1273.12 584.427 1274.07 583.564 1275.02 582.697C1276.45 581.387 1277.9 580.093 1279.37 578.817C1280.27 578.031 1281.15 577.233 1282.04 576.434C1283.4 575.203 1284.78 573.987 1286.16 572.782C1287.13 571.925 1288.08 571.047 1289.03 570.171C1289.73 569.537 1290.44 568.905 1291.14 568.273C1291.44 567.998 1291.73 567.723 1292.03 567.44C1293.5 566.156 1294.56 565.446 1296.55 565.355C1298.19 565.477 1299.11 565.892 1300.25 567.134C1301.22 568.588 1301.32 569.565 1301.3 571.292C1300.7 573.655 1298.62 575.105 1296.83 576.624C1296.56 576.866 1296.29 577.107 1296.01 577.356C1295.54 577.782 1295.05 578.204 1294.57 578.62C1293.66 579.395 1292.78 580.191 1291.9 580.989C1290.53 582.226 1289.15 583.448 1287.76 584.658C1287.16 585.187 1286.57 585.724 1285.98 586.265C1285.64 586.575 1285.3 586.885 1284.95 587.205C1284.64 587.494 1284.33 587.782 1284.01 588.08C1283.17 588.771 1283.17 588.771 1282.04 589.15C1283.02 590.948 1284.28 592.45 1285.59 594.014C1286.07 594.591 1286.55 595.167 1287.03 595.744C1287.27 596.036 1287.51 596.328 1287.76 596.629C1288.88 597.972 1289.97 599.326 1291.07 600.681C1292.43 602.353 1293.78 604.023 1295.15 605.686C1295.54 606.173 1295.54 606.173 1295.94 606.669C1296.63 607.508 1297.33 608.331 1298.04 609.152C1298.46 609.649 1298.88 610.147 1299.3 610.645C1299.5 610.872 1299.7 611.098 1299.91 611.332C1301.35 613.063 1301.85 614.597 1301.76 616.861C1301.29 618.341 1300.78 618.999 1299.63 620.04C1298.04 620.807 1296.67 621.051 1294.94 620.657C1293.14 619.659 1291.97 618.422 1290.76 616.789C1290.4 616.313 1290.04 615.837 1289.67 615.362C1289.48 615.111 1289.29 614.861 1289.09 614.603C1288.03 613.244 1286.93 611.922 1285.83 610.597C1283.69 608.006 1281.59 605.381 1279.52 602.726C1278.57 601.503 1277.61 600.286 1276.65 599.067C1276.3 598.618 1275.95 598.168 1275.59 597.718C1275.34 597.396 1275.09 597.074 1274.83 596.742C1273.03 597.581 1271.53 598.61 1270.28 600.159C1269.87 601.421 1269.89 602.593 1269.94 603.909C1269.93 604.262 1269.93 604.615 1269.93 604.979C1269.93 606.101 1269.95 607.222 1269.97 608.344C1269.98 609.467 1269.98 610.589 1269.98 611.713C1269.98 612.409 1269.99 613.106 1270 613.803C1270.02 615.753 1269.84 617.065 1268.76 618.759C1267.59 619.942 1266.65 620.071 1265.01 620.087C1263.49 620.054 1262.48 619.978 1261.29 618.996C1259.94 617.468 1259.97 616.427 1259.97 614.469C1259.97 614.181 1259.97 613.892 1259.97 613.594C1259.96 612.621 1259.96 611.647 1259.96 610.674C1259.96 609.978 1259.95 609.283 1259.95 608.587C1259.94 606.297 1259.93 604.008 1259.93 601.718C1259.93 600.931 1259.92 600.144 1259.92 599.356C1259.91 596.081 1259.91 592.806 1259.9 589.531C1259.9 584.833 1259.88 580.136 1259.86 575.439C1259.85 572.138 1259.84 568.838 1259.84 565.537C1259.84 563.565 1259.83 561.592 1259.82 559.62C1259.81 557.764 1259.81 555.909 1259.81 554.053C1259.81 553.372 1259.81 552.691 1259.8 552.01C1259.79 551.08 1259.8 550.15 1259.8 549.22C1259.8 548.951 1259.79 548.682 1259.79 548.405C1259.82 546.284 1260.48 545.418 1261.93 543.979C1263.43 543.229 1265.23 543.433 1266.86 543.599Z" fill="#1B4F88"/>
<path d="M1055.16 543.599C1056.46 544.214 1057.16 544.63 1057.87 545.877C1058.35 547.56 1058.3 549.183 1058.28 550.925C1058.28 551.318 1058.28 551.71 1058.28 552.115C1058.28 553.411 1058.28 554.707 1058.27 556.003C1058.27 556.902 1058.27 557.802 1058.27 558.701C1058.26 561.067 1058.26 563.433 1058.25 565.798C1058.24 568.213 1058.24 570.628 1058.23 573.042C1058.23 577.779 1058.21 582.516 1058.2 587.252C1058.68 586.83 1059.16 586.408 1059.65 585.986C1059.91 585.751 1060.18 585.516 1060.46 585.274C1061.42 584.427 1062.37 583.564 1063.32 582.697C1064.76 581.387 1066.2 580.093 1067.67 578.817C1068.57 578.031 1069.45 577.233 1070.34 576.434C1071.7 575.203 1073.08 573.987 1074.46 572.782C1075.43 571.925 1076.38 571.047 1077.33 570.171C1078.03 569.537 1078.74 568.905 1079.44 568.273C1079.74 567.998 1080.03 567.723 1080.33 567.44C1081.8 566.156 1082.87 565.446 1084.85 565.355C1086.49 565.477 1087.41 565.892 1088.55 567.134C1089.52 568.588 1089.62 569.565 1089.6 571.292C1089 573.655 1086.93 575.105 1085.13 576.624C1084.86 576.866 1084.59 577.107 1084.31 577.356C1083.84 577.782 1083.35 578.204 1082.87 578.62C1081.97 579.395 1081.08 580.191 1080.2 580.989C1078.83 582.226 1077.45 583.448 1076.06 584.658C1075.46 585.187 1074.87 585.724 1074.28 586.265C1073.94 586.575 1073.6 586.885 1073.25 587.205C1072.94 587.494 1072.63 587.782 1072.31 588.08C1071.48 588.771 1071.48 588.771 1070.34 589.15C1071.32 590.948 1072.58 592.45 1073.89 594.014C1074.37 594.591 1074.85 595.167 1075.33 595.744C1075.57 596.036 1075.82 596.328 1076.07 596.629C1077.18 597.972 1078.27 599.326 1079.37 600.681C1080.73 602.353 1082.08 604.023 1083.45 605.686C1083.84 606.173 1083.84 606.173 1084.25 606.669C1084.93 607.508 1085.63 608.331 1086.34 609.152C1086.76 609.649 1087.18 610.147 1087.6 610.645C1087.8 610.872 1088 611.098 1088.21 611.332C1089.65 613.063 1090.15 614.597 1090.07 616.861C1089.59 618.341 1089.08 618.999 1087.93 620.04C1086.34 620.807 1084.97 621.051 1083.24 620.657C1081.44 619.659 1080.27 618.422 1079.06 616.789C1078.7 616.313 1078.34 615.837 1077.97 615.362C1077.78 615.111 1077.59 614.861 1077.39 614.603C1076.34 613.244 1075.23 611.922 1074.13 610.597C1071.99 608.006 1069.89 605.381 1067.82 602.726C1066.87 601.503 1065.91 600.286 1064.95 599.067C1064.6 598.618 1064.25 598.168 1063.89 597.718C1063.64 597.396 1063.39 597.074 1063.13 596.742C1061.34 597.581 1059.83 598.61 1058.58 600.159C1058.17 601.421 1058.19 602.593 1058.24 603.909C1058.24 604.262 1058.23 604.615 1058.23 604.979C1058.23 606.101 1058.25 607.222 1058.27 608.344C1058.28 609.467 1058.28 610.589 1058.28 611.713C1058.28 612.409 1058.29 613.106 1058.31 613.803C1058.32 615.753 1058.14 617.065 1057.06 618.759C1055.89 619.942 1054.95 620.071 1053.31 620.087C1051.79 620.054 1050.78 619.978 1049.59 618.996C1048.24 617.468 1048.28 616.427 1048.27 614.469C1048.27 614.181 1048.27 613.892 1048.27 613.594C1048.26 612.621 1048.26 611.647 1048.26 610.674C1048.26 609.978 1048.25 609.283 1048.25 608.587C1048.24 606.297 1048.23 604.008 1048.23 601.718C1048.23 600.931 1048.22 600.144 1048.22 599.356C1048.21 596.081 1048.21 592.806 1048.2 589.531C1048.2 584.833 1048.18 580.136 1048.16 575.439C1048.15 572.138 1048.14 568.838 1048.14 565.537C1048.14 563.565 1048.13 561.592 1048.12 559.62C1048.11 557.764 1048.11 555.909 1048.11 554.053C1048.11 553.372 1048.11 552.691 1048.1 552.01C1048.09 551.08 1048.1 550.15 1048.1 549.22C1048.1 548.951 1048.09 548.682 1048.09 548.405C1048.12 546.284 1048.78 545.418 1050.23 543.979C1051.73 543.229 1053.53 543.433 1055.16 543.599Z" fill="#1B4F88"/>
<path d="M1692.91 569.791C1698.21 573.801 1701.13 579.134 1702.05 585.666C1702.47 588.853 1702.52 592.015 1702.51 595.225C1702.52 595.825 1702.52 596.424 1702.52 597.023C1702.52 598.266 1702.52 599.509 1702.52 600.752C1702.52 602.341 1702.52 603.93 1702.53 605.519C1702.54 606.751 1702.54 607.983 1702.54 609.215C1702.54 609.801 1702.54 610.387 1702.54 610.973C1702.55 611.79 1702.55 612.607 1702.54 613.424C1702.54 613.888 1702.54 614.351 1702.54 614.828C1702.34 616.662 1701.69 617.907 1700.46 619.257C1698.97 620.129 1697.66 620.353 1695.95 620.277C1694.15 619.666 1693.21 618.806 1692.16 617.24C1691.71 615.895 1691.73 614.823 1691.72 613.402C1691.72 613.129 1691.72 612.855 1691.72 612.573C1691.72 611.978 1691.71 611.384 1691.71 610.789C1691.71 609.844 1691.7 608.898 1691.7 607.953C1691.68 605.265 1691.66 602.576 1691.65 599.888C1691.65 598.242 1691.64 596.597 1691.62 594.952C1691.62 594.328 1691.62 593.705 1691.62 593.082C1691.62 588.233 1691.32 583.484 1688 579.635C1684.91 576.7 1681 575.488 1676.79 575.343C1672.38 575.495 1668.16 576.865 1665.08 580.135C1662.45 583.688 1662.35 587.193 1662.37 591.451C1662.37 592.472 1662.37 593.494 1662.36 594.515C1662.35 596.314 1662.35 598.113 1662.35 599.912C1662.35 602.795 1662.35 605.679 1662.33 608.563C1662.33 609.567 1662.33 610.571 1662.33 611.575C1662.33 612.192 1662.33 612.809 1662.32 613.425C1662.33 613.702 1662.33 613.979 1662.33 614.265C1662.32 616.041 1661.97 617.246 1661.05 618.759C1659.81 619.876 1658.8 620.246 1657.13 620.372C1655.22 620.242 1654.08 619.681 1652.65 618.432C1651.55 616.58 1651.73 614.784 1651.74 612.67C1651.74 611.976 1651.74 611.976 1651.74 611.267C1651.73 610 1651.73 608.732 1651.74 607.465C1651.74 606.137 1651.74 604.808 1651.73 603.48C1651.73 601.249 1651.74 599.018 1651.74 596.788C1651.75 594.212 1651.75 591.636 1651.74 589.06C1651.73 586.845 1651.73 584.631 1651.74 582.416C1651.74 581.095 1651.74 579.774 1651.73 578.452C1651.73 576.978 1651.74 575.505 1651.74 574.031C1651.74 573.595 1651.74 573.159 1651.73 572.709C1651.76 570.361 1651.86 568.91 1653.46 567.134C1655.13 565.96 1657.2 566.063 1659.15 566.375C1660.55 567.071 1661.5 567.961 1662.13 569.395C1662.35 570.123 1662.35 570.123 1662.56 571.31C1662.78 571.14 1663.01 570.97 1663.23 570.795C1671.72 564.537 1684.05 563.754 1692.91 569.791Z" fill="#1B4F88"/>
<path d="M1205.78 569.791C1211.07 573.801 1214 579.134 1214.92 585.666C1215.34 588.853 1215.38 592.015 1215.38 595.225C1215.38 595.825 1215.38 596.424 1215.38 597.023C1215.39 598.266 1215.39 599.509 1215.38 600.752C1215.38 602.341 1215.39 603.93 1215.4 605.519C1215.4 606.751 1215.4 607.983 1215.4 609.215C1215.4 609.801 1215.4 610.387 1215.41 610.973C1215.41 611.79 1215.41 612.607 1215.4 613.424C1215.41 613.888 1215.41 614.351 1215.41 614.828C1215.2 616.662 1214.56 617.907 1213.32 619.257C1211.83 620.129 1210.53 620.353 1208.81 620.277C1207.01 619.666 1206.08 618.806 1205.02 617.24C1204.57 615.895 1204.59 614.823 1204.59 613.402C1204.59 613.129 1204.58 612.855 1204.58 612.573C1204.58 611.978 1204.58 611.384 1204.58 610.789C1204.57 609.844 1204.57 608.898 1204.56 607.953C1204.54 605.265 1204.52 602.576 1204.52 599.888C1204.51 598.242 1204.5 596.597 1204.49 594.952C1204.48 594.328 1204.48 593.705 1204.48 593.082C1204.49 588.233 1204.18 583.484 1200.86 579.635C1197.77 576.7 1193.86 575.488 1189.65 575.343C1185.24 575.495 1181.03 576.865 1177.94 580.135C1175.31 583.688 1175.21 587.193 1175.23 591.451C1175.24 592.472 1175.23 593.494 1175.23 594.515C1175.22 596.314 1175.21 598.113 1175.21 599.912C1175.21 602.795 1175.21 605.679 1175.19 608.563C1175.19 609.567 1175.19 610.571 1175.2 611.575C1175.19 612.192 1175.19 612.809 1175.19 613.425C1175.19 613.702 1175.19 613.979 1175.2 614.265C1175.18 616.041 1174.84 617.246 1173.91 618.759C1172.68 619.876 1171.67 620.246 1170 620.372C1168.08 620.242 1166.95 619.681 1165.51 618.432C1164.41 616.58 1164.59 614.784 1164.61 612.67C1164.6 611.976 1164.6 611.976 1164.6 611.267C1164.59 610 1164.6 608.732 1164.6 607.465C1164.6 606.137 1164.6 604.808 1164.6 603.48C1164.6 601.249 1164.6 599.018 1164.61 596.788C1164.62 594.212 1164.61 591.636 1164.6 589.06C1164.6 586.845 1164.6 584.631 1164.6 582.416C1164.6 581.095 1164.6 579.774 1164.6 578.452C1164.59 576.978 1164.6 575.505 1164.61 574.031C1164.61 573.595 1164.6 573.159 1164.6 572.709C1164.62 570.361 1164.73 568.91 1166.32 567.134C1168 565.96 1170.06 566.063 1172.01 566.375C1173.41 567.071 1174.36 567.961 1175 569.395C1175.21 570.123 1175.21 570.123 1175.43 571.31C1175.65 571.14 1175.87 570.97 1176.1 570.795C1184.58 564.537 1196.92 563.754 1205.78 569.791Z" fill="#1B4F88"/>
<path d="M870.398 569.791C875.693 573.801 878.618 579.134 879.535 585.666C879.957 588.853 880 592.015 879.997 595.225C879.998 595.825 880 596.424 880.002 597.023C880.005 598.266 880.005 599.509 880.003 600.752C880 602.341 880.007 603.93 880.016 605.519C880.021 606.751 880.022 607.983 880.02 609.215C880.021 609.801 880.023 610.387 880.026 610.973C880.031 611.79 880.029 612.607 880.024 613.424C880.024 613.888 880.025 614.351 880.025 614.828C879.82 616.662 879.178 617.907 877.938 619.257C876.454 620.129 875.147 620.353 873.433 620.277C871.634 619.666 870.696 618.806 869.639 617.24C869.191 615.895 869.21 614.823 869.206 613.402C869.205 613.129 869.204 612.855 869.202 612.573C869.199 611.978 869.197 611.384 869.196 610.789C869.193 609.844 869.187 608.898 869.18 607.953C869.16 605.265 869.142 602.576 869.136 599.888C869.132 598.242 869.121 596.597 869.105 594.952C869.101 594.328 869.099 593.705 869.1 593.082C869.105 588.233 868.804 583.484 865.479 579.635C862.391 576.7 858.479 575.488 854.274 575.343C849.863 575.495 845.644 576.865 842.56 580.135C839.931 583.688 839.831 587.193 839.851 591.451C839.856 592.472 839.852 593.494 839.845 594.515C839.835 596.314 839.833 598.113 839.833 599.912C839.834 602.795 839.829 605.679 839.812 608.563C839.808 609.567 839.812 610.571 839.815 611.575C839.813 612.192 839.81 612.809 839.808 613.425C839.81 613.702 839.813 613.979 839.816 614.265C839.799 616.041 839.457 617.246 838.529 618.759C837.298 619.876 836.286 620.246 834.617 620.372C832.704 620.242 831.567 619.681 830.128 618.432C829.034 616.58 829.213 614.784 829.228 612.67C829.224 611.976 829.224 611.976 829.22 611.267C829.214 610 829.215 608.732 829.22 607.465C829.224 606.137 829.22 604.808 829.218 603.48C829.215 601.249 829.219 599.018 829.226 596.788C829.234 594.212 829.232 591.636 829.223 589.06C829.217 586.845 829.216 584.631 829.22 582.416C829.222 581.095 829.222 579.774 829.217 578.452C829.212 576.978 829.219 575.505 829.228 574.031C829.225 573.595 829.222 573.159 829.218 572.709C829.243 570.361 829.347 568.91 830.942 567.134C832.617 565.96 834.679 566.063 836.632 566.375C838.029 567.071 838.982 567.961 839.617 569.395C839.834 570.123 839.834 570.123 840.047 571.31C840.268 571.14 840.489 570.97 840.717 570.795C849.199 564.537 861.536 563.754 870.398 569.791Z" fill="#1B4F88"/>
<path d="M671.978 569.791C677.273 573.801 680.198 579.134 681.115 585.666C681.537 588.853 681.58 592.015 681.577 595.225C681.579 595.825 681.58 596.424 681.582 597.023C681.585 598.266 681.585 599.509 681.583 600.752C681.58 602.341 681.587 603.93 681.596 605.519C681.601 606.751 681.602 607.983 681.6 609.215C681.601 609.801 681.603 610.387 681.606 610.973C681.611 611.79 681.609 612.607 681.604 613.424C681.604 613.888 681.605 614.351 681.605 614.828C681.4 616.662 680.758 617.907 679.519 619.257C678.034 620.129 676.727 620.353 675.013 620.277C673.214 619.666 672.276 618.806 671.219 617.24C670.771 615.895 670.79 614.823 670.786 613.402C670.785 613.129 670.784 612.855 670.782 612.573C670.779 611.978 670.777 611.384 670.776 610.789C670.773 609.844 670.767 608.898 670.76 607.953C670.741 605.265 670.722 602.576 670.716 599.888C670.713 598.242 670.701 596.597 670.686 594.952C670.681 594.328 670.679 593.705 670.68 593.082C670.685 588.233 670.384 583.484 667.059 579.635C663.971 576.7 660.059 575.488 655.854 575.343C651.443 575.495 647.224 576.865 644.141 580.135C641.511 583.688 641.411 587.193 641.431 591.451C641.436 592.472 641.432 593.494 641.425 594.515C641.415 596.314 641.413 598.113 641.413 599.912C641.414 602.795 641.409 605.679 641.392 608.563C641.389 609.567 641.392 610.571 641.396 611.575C641.393 612.192 641.391 612.809 641.388 613.425C641.391 613.702 641.393 613.979 641.396 614.265C641.379 616.041 641.037 617.246 640.109 618.759C638.878 619.876 637.866 620.246 636.197 620.372C634.284 620.242 633.147 619.681 631.709 618.432C630.614 616.58 630.793 614.784 630.808 612.67C630.804 611.976 630.804 611.976 630.8 611.267C630.794 610 630.795 608.732 630.8 607.465C630.804 606.137 630.801 604.808 630.798 603.48C630.795 601.249 630.799 599.018 630.806 596.788C630.815 594.212 630.812 591.636 630.804 589.06C630.797 586.845 630.796 584.631 630.8 582.416C630.802 581.095 630.802 579.774 630.797 578.452C630.792 576.978 630.799 575.505 630.808 574.031C630.805 573.595 630.802 573.159 630.798 572.709C630.823 570.361 630.927 568.91 632.522 567.134C634.197 565.96 636.259 566.063 638.213 566.375C639.609 567.071 640.562 567.961 641.197 569.395C641.414 570.123 641.414 570.123 641.627 571.31C641.848 571.14 642.069 570.97 642.297 570.795C650.779 564.537 663.116 563.754 671.978 569.791Z" fill="#1B4F88"/>
<path d="M905.8 549.744C906.998 550.552 907.364 551.013 907.958 552.33C908.111 553.556 908.091 554.769 908.069 556.003C908.068 556.354 908.066 556.705 908.064 557.067C908.058 558.185 908.044 559.302 908.029 560.42C908.023 561.18 908.018 561.939 908.014 562.698C908.001 564.557 907.981 566.415 907.958 568.273C908.247 568.267 908.536 568.261 908.833 568.255C910.146 568.231 911.459 568.216 912.772 568.202C913.226 568.192 913.681 568.183 914.149 568.173C914.588 568.169 915.027 568.166 915.479 568.162C915.882 568.156 916.286 568.15 916.701 568.144C918.274 568.325 919.246 568.987 920.407 570.029C921.118 571.452 921.15 572.791 920.857 574.346C920.124 575.702 919.308 576.508 917.822 577.004C917.066 577.035 916.31 577.044 915.553 577.041C915.112 577.039 914.67 577.038 914.216 577.037C913.755 577.034 913.294 577.031 912.819 577.027C912.354 577.026 911.888 577.024 911.409 577.022C910.259 577.018 909.108 577.011 907.958 577.004C907.981 580.205 908.011 583.406 908.047 586.606C908.064 588.093 908.079 589.58 908.089 591.066C908.099 592.504 908.115 593.941 908.134 595.379C908.14 595.924 908.144 596.47 908.147 597.016C908.165 600.831 908.259 604.237 910.614 607.371C910.614 607.621 910.614 607.872 910.614 608.13C913.298 609.576 915.739 609.767 918.748 609.861C920.158 610.035 920.88 610.306 921.995 611.167C923.091 612.993 923.303 614.349 922.974 616.45C922.573 617.893 921.808 618.793 920.541 619.559C918.993 620.196 917.34 620.038 915.688 620.04C915.329 620.049 914.969 620.058 914.599 620.068C909.951 620.087 906.214 617.993 902.789 614.963C899.57 611.592 897.992 606.751 898.008 602.17C898.008 601.896 898.008 601.621 898.007 601.339C898.008 600.443 898.014 599.548 898.02 598.652C898.021 598.027 898.022 597.401 898.023 596.776C898.026 595.138 898.033 593.501 898.042 591.864C898.05 590.189 898.053 588.515 898.057 586.84C898.065 583.561 898.078 580.283 898.094 577.004C897.678 577.017 897.261 577.03 896.833 577.044C896.281 577.054 895.729 577.065 895.177 577.075C894.904 577.084 894.63 577.094 894.348 577.104C892.198 577.133 891.101 576.624 889.451 575.338C888.642 574.267 888.791 573.181 888.826 571.885C889.088 570.347 889.755 569.703 890.885 568.653C892.141 568.024 893.538 568.235 894.916 568.249C895.221 568.251 895.525 568.253 895.838 568.254C896.59 568.259 897.342 568.266 898.094 568.273C898.086 567.802 898.078 567.331 898.07 566.846C898.042 565.093 898.025 563.34 898.011 561.587C898.003 560.829 897.993 560.071 897.979 559.313C897.961 558.222 897.952 557.131 897.946 556.04C897.938 555.703 897.93 555.366 897.922 555.019C897.921 552.921 898.196 551.709 899.611 550.053C901.55 548.867 903.736 549.004 905.8 549.744Z" fill="#1B4F88"/>
<path d="M1036.32 567.773C1037.59 568.782 1038.03 569.196 1038.44 570.835C1038.62 572.663 1038 573.637 1036.95 575.105C1034.87 576.149 1031.66 575.508 1029.43 575.194C1024.5 574.662 1019.46 575.222 1015.33 578.142C1012.61 580.5 1011.39 583 1011.08 586.541C1011.06 587.354 1011.05 588.164 1011.06 588.978C1011.05 589.434 1011.05 589.434 1011.05 589.9C1011.05 590.553 1011.05 591.207 1011.05 591.86C1011.05 592.896 1011.04 593.932 1011.04 594.968C1011.02 597.91 1011.01 600.853 1011.01 603.795C1011.01 605.601 1011 607.406 1010.98 609.212C1010.98 609.898 1010.98 610.583 1010.98 611.269C1010.98 612.227 1010.98 613.185 1010.97 614.144C1010.97 614.425 1010.97 614.706 1010.98 614.995C1010.95 616.925 1010.47 618.032 1009.26 619.518C1008.19 620.049 1007.29 619.976 1006.1 619.992C1005.67 620.002 1005.24 620.012 1004.8 620.022C1003.43 619.883 1002.75 619.608 1001.67 618.759C1000.92 617.568 1000.81 616.637 1000.8 615.243C1000.8 614.838 1000.8 614.434 1000.79 614.017C1000.79 613.575 1000.79 613.134 1000.79 612.679C1000.79 612.212 1000.79 611.745 1000.78 611.264C1000.78 609.985 1000.77 608.706 1000.77 607.427C1000.77 606.627 1000.77 605.827 1000.76 605.028C1000.75 602.236 1000.75 599.445 1000.75 596.654C1000.75 594.054 1000.73 591.455 1000.72 588.855C1000.71 586.622 1000.7 584.388 1000.7 582.154C1000.7 580.821 1000.7 579.488 1000.68 578.154C1000.67 576.667 1000.68 575.179 1000.68 573.692C1000.68 573.252 1000.67 572.811 1000.66 572.358C1000.69 569.029 1000.69 569.029 1001.82 567.626C1003.22 566.384 1003.93 566.307 1005.77 566.28C1006.16 566.27 1006.56 566.26 1006.96 566.25C1008.27 566.391 1008.96 566.749 1010.01 567.514C1011 568.843 1010.99 570.468 1011.15 572.069C1011.31 571.908 1011.47 571.747 1011.63 571.581C1017.64 565.855 1029.01 562.827 1036.32 567.773Z" fill="#1B4F88"/>
<path d="M1513.84 566.375C1515.31 567.133 1515.97 567.664 1516.88 569.032C1516.98 569.919 1516.98 569.919 1516.98 570.984C1516.99 571.388 1516.99 571.792 1516.99 572.208C1516.99 572.651 1516.99 573.094 1516.99 573.55C1517 574.017 1517 574.484 1517 574.965C1517.01 576.246 1517.02 577.526 1517.02 578.807C1517.02 579.608 1517.02 580.408 1517.02 581.209C1517.03 584.002 1517.04 586.796 1517.04 589.59C1517.04 592.192 1517.05 594.794 1517.07 597.397C1517.08 599.632 1517.09 601.867 1517.09 604.103C1517.09 605.437 1517.09 606.772 1517.1 608.106C1517.11 609.596 1517.11 611.085 1517.11 612.574C1517.11 613.015 1517.12 613.456 1517.12 613.91C1517.09 617.244 1517.09 617.244 1515.96 618.647C1514.29 620.129 1512.99 620.048 1510.8 620.029C1509.07 619.828 1508.51 619.323 1507.39 617.999C1506.75 616.67 1506.54 615.613 1506.54 614.145C1506.53 613.759 1506.53 613.373 1506.53 612.976C1506.53 612.557 1506.53 612.138 1506.53 611.706C1506.53 611.261 1506.53 610.817 1506.52 610.358C1506.52 608.889 1506.52 607.419 1506.52 605.949C1506.52 605.185 1506.52 604.422 1506.52 603.659C1506.51 601.259 1506.51 598.859 1506.51 596.46C1506.52 593.987 1506.51 591.515 1506.5 589.042C1506.5 586.916 1506.5 584.79 1506.5 582.665C1506.5 581.396 1506.5 580.128 1506.49 578.86C1506.49 577.445 1506.49 576.03 1506.49 574.615C1506.49 574.197 1506.49 573.779 1506.48 573.348C1506.5 570.889 1506.72 569.162 1508.34 567.205C1509.87 565.993 1512 566.163 1513.84 566.375Z" fill="#1B4F88"/>
<path d="M1514.71 545.069C1516.5 546.091 1517.8 547.291 1518.4 549.293C1518.68 551.273 1518.71 553.152 1517.78 554.963C1516.56 556.535 1515.34 557.397 1513.46 558.024C1511.05 558.229 1509.41 557.882 1507.39 556.505C1505.95 555.065 1505.14 553.577 1505.1 551.505C1505.28 548.997 1506.1 547.461 1507.99 545.758C1509.95 544.399 1512.49 544.222 1514.71 545.069Z" fill="#1B4F88"/>
<path d="M165.493 150.722C166.253 151.102 166.253 151.102 166.253 151.102L165.493 150.722Z" fill="#F0AB27"/>
</svg>
